<svg width="48" height="48" viewBox="0 0 48 48" fill="none" xmlns="http://www.w3.org/2000/svg">
<path d="M25.3323 28.6381L25.855 27.1657L26.3924 28.6381H25.3323ZM19.1188 26.3264H19.936C20.3041 26.3264 20.5029 26.562 20.5029 26.827C20.5029 27.0921 20.3041 27.3277 19.936 27.3277H19.1188V26.3264ZM44.6206 24.3976C44.0391 24.3976 43.5679 24.8688 43.5679 25.4504V27.5927L41.7789 24.9277C41.5802 24.6258 41.293 24.3902 40.8587 24.3902C40.2771 24.3902 39.8059 24.854 39.8059 25.4356V25.443V30.3461C39.8059 30.9277 40.2771 31.3988 40.8587 31.3988C41.4403 31.3988 41.9114 30.9277 41.9114 30.3461V28.1522L43.7004 30.8614C43.8992 31.1632 44.2378 31.3988 44.6354 31.3988C45.2096 31.3988 45.6734 30.935 45.6734 30.3682C45.6734 30.3608 45.6734 30.3534 45.6734 30.3461V25.443C45.6734 24.8614 45.2096 24.3902 44.628 24.3902C44.628 24.3976 44.6206 24.3976 44.6206 24.3976ZM38.5765 26.4074C39.1286 26.4221 39.5924 25.9804 39.6072 25.4283C39.6219 24.8761 39.1802 24.4123 38.628 24.3976C38.6133 24.3976 38.5986 24.3976 38.5838 24.3976H35.72C35.1384 24.3976 34.6673 24.8614 34.6673 25.443V25.4504V30.3534C34.6673 30.935 35.1311 31.4062 35.7127 31.4062H35.72H38.5765C39.1286 31.4209 39.5924 30.9792 39.6072 30.427C39.6219 29.8749 39.1802 29.4111 38.628 29.3964C38.6133 29.3964 38.5986 29.3964 38.5838 29.3964H36.7949V28.7412H38.2525C38.7384 28.7559 39.1433 28.3657 39.1507 27.8872C39.1581 27.4086 38.7752 26.9964 38.2967 26.989C38.282 26.989 38.2673 26.989 38.2525 26.989H36.7949V26.4001H38.5765V26.4074ZM33.4157 24.3976C32.9299 24.3976 32.5618 24.6479 32.4145 25.0823L31.2219 28.2185L30.0145 25.0896C29.8673 24.6553 29.4918 24.405 29.0133 24.405C28.2403 24.405 27.7765 25.178 28.0783 25.9436L29.9556 30.5448C30.1544 31.0455 30.5446 31.4136 31.2292 31.4136C31.8992 31.4136 32.282 31.0455 32.4881 30.5448L34.3581 25.9436C34.6746 25.1927 34.2035 24.3976 33.4157 24.3976ZM27.0918 25.2589C26.871 24.7583 26.4881 24.405 25.8697 24.405C25.2366 24.405 24.8685 24.7583 24.6476 25.2589L22.6599 29.897C22.3581 30.5816 22.7777 31.4209 23.6317 31.4209C24.0734 31.4283 24.4636 31.1485 24.6035 30.7363L24.736 30.3313H26.9814L27.1286 30.751C27.2832 31.1632 27.6808 31.4283 28.1151 31.4209C28.9323 31.4209 29.3519 30.5816 29.0722 29.9338L27.0918 25.2589ZM21.4157 28.6381C22.1372 28.2847 22.6231 27.6369 22.6231 26.7313C22.6231 25.2589 21.4157 24.405 19.9949 24.405H18.0513C17.4697 24.405 16.9986 24.8688 16.9986 25.4504V25.4577V30.3608C16.9986 30.9497 17.4771 31.4209 18.066 31.4209C18.655 31.4209 19.1262 30.9424 19.1262 30.3608V28.9915L20.4808 30.9497C20.6795 31.2442 21.0182 31.4209 21.3716 31.4209C22.2918 31.4209 22.7262 30.4344 22.2256 29.7497L21.4157 28.6381ZM27.0256 24.5007C27.0182 24.7436 27.217 24.9497 27.4599 24.9497C27.7029 24.9571 27.909 24.7583 27.909 24.5154C27.909 24.2724 27.7176 24.0663 27.4746 24.0663C27.4673 24.0663 27.4599 24.0663 27.4599 24.0663C27.217 24.0737 27.0256 24.2651 27.0256 24.5007ZM24.2575 24.0663C24.0145 24.0663 23.8231 24.2577 23.8231 24.5007C23.8231 24.7436 24.0145 24.935 24.2575 24.935C24.5004 24.935 24.6918 24.7436 24.6918 24.5007C24.6845 24.2651 24.493 24.0737 24.2575 24.0663ZM4.29918 23.4626C3.86482 23.3448 3.40838 23.2933 2.9593 23.2933L2.94458 23.2786C2.98875 23.0504 3.09182 22.8369 3.24642 22.6602C3.67341 22.7927 4.04151 23.0651 4.29918 23.4332V23.4626ZM27.4599 21.254L27.9826 19.7816L28.52 21.254H27.4599ZM37.4722 24.0369H40.1814C40.7335 24.0516 41.1973 23.6099 41.2121 23.0577C41.2268 22.5056 40.7851 22.0418 40.2329 22.027C40.2182 22.027 40.2035 22.027 40.1888 22.027H38.547V18.0737C38.547 17.4847 38.0685 17.0135 37.4795 17.0135C36.8906 17.0135 36.4194 17.4921 36.4194 18.0737V22.9767C36.4121 23.5583 36.8832 24.0295 37.4648 24.0369C37.4648 24.0369 37.4648 24.0369 37.4722 24.0369ZM32.5323 24.0369H35.2489C35.801 24.0221 36.2427 23.5657 36.228 23.0062C36.2133 22.4688 35.7863 22.0344 35.2489 22.027H33.6072V18.0737C33.6072 17.4847 33.1286 17.0135 32.5397 17.0135C31.9507 17.0135 31.4795 17.4921 31.4795 18.0737V22.9767C31.4795 23.5583 31.9433 24.0295 32.5249 24.0369C32.5249 24.0369 32.5249 24.0369 32.5323 24.0369ZM25.7519 24.0369C26.1937 24.0442 26.5838 23.7645 26.7237 23.3522L26.8562 22.9473H29.1016L29.2489 23.3669C29.4035 23.7792 29.801 24.0442 30.2354 24.0369C31.0526 24.0369 31.4722 23.1976 31.1924 22.5497L29.2194 17.8823C29.0059 17.3816 28.6157 17.0283 27.9973 17.0283C27.3642 17.0283 26.9961 17.3816 26.7753 17.8823L24.7802 22.5203C24.4783 23.1976 24.8979 24.0369 25.7519 24.0369ZM20.8121 21.7252C20.2599 21.7252 19.8256 22.1964 19.8256 22.7264C19.8256 23.0062 19.9286 23.2712 20.1274 23.4626C20.5102 23.8454 21.1654 24.1178 22.1372 24.1178C23.7789 24.1178 24.6845 22.9767 24.6845 21.6589V18.0737C24.6845 17.4921 24.2206 17.0209 23.6391 17.0209H23.6317C23.0427 17.0135 22.5642 17.4847 22.5568 18.0737V21.6221C22.5568 21.9534 22.3581 22.1227 22.0857 22.1227C21.8133 22.1227 21.666 22.0418 21.3789 21.8872C21.2096 21.7767 21.0108 21.7178 20.8121 21.7252ZM18.044 24.0295C18.6256 24.0369 19.1041 23.5804 19.1188 22.9915C19.1188 22.9841 19.1188 22.9767 19.1188 22.9694V21.5117H20.6427C21.1433 21.5117 21.5556 21.1068 21.5556 20.5988C21.5556 20.0982 21.1507 19.6859 20.6427 19.6859H19.1188V19.016H20.9078C21.4599 19.0013 21.9016 18.5448 21.8869 17.9853C21.8722 17.4479 21.4452 17.0135 20.9078 17.0062H18.044C17.4624 17.0062 16.9912 17.47 16.9912 18.0516V18.0589V22.962C16.9912 23.5436 17.455 24.0148 18.0366 24.0221C18.044 24.0369 18.044 24.0369 18.044 24.0295ZM29.5875 17.551C29.8305 17.551 30.0366 17.3596 30.0366 17.1166C30.0366 16.8737 29.8378 16.6749 29.5949 16.6749C29.3519 16.6749 29.1532 16.8737 29.1532 17.1166C29.1532 17.3596 29.3446 17.551 29.5875 17.551ZM26.3851 17.551C26.6206 17.5436 26.8194 17.3522 26.8194 17.1166C26.8194 16.8737 26.6206 16.6749 26.3777 16.6749C26.1348 16.6749 25.936 16.8737 25.936 17.1166C25.9433 17.3596 26.1421 17.5583 26.3851 17.551ZM9.09182 16.7338C9.07709 16.4099 9.04028 16.0638 9.01084 15.6589H8.99611L8.22311 16.6602H7.98752C6.54458 16.6602 4.9912 16.962 3.70286 17.6982L3.71758 17.735C4.32127 17.5142 4.96176 17.4037 5.60961 17.4037C6.22801 17.4037 6.83906 17.5142 7.42065 17.735L7.05255 18.2209C6.52249 18.0074 5.96298 17.9043 5.39611 17.9043C4.59366 17.9043 3.80593 18.1252 3.25378 18.4565L1.78139 16.4688H1.76666C1.61942 18.2283 1.51636 20.1865 1.51636 21.1878C1.51636 23.4626 2.05378 23.9191 2.67219 24.4344C3.15807 24.8393 3.71022 25.3031 4.0636 26.7755C4.28446 27.681 4.43169 27.8798 4.96912 27.8798C5.4182 27.8798 5.62433 27.7105 5.82311 26.9448C6.20593 25.4872 7.00838 24.751 7.75194 24.1031C8.5912 23.3522 9.35685 22.7117 9.35685 21.2761C9.35685 20.4221 9.23906 19.7007 8.98875 18.8172C9.60715 19.5019 9.98998 20.4074 9.98998 21.497C9.98998 22.6381 9.57034 23.4258 8.21574 24.6111C7.17771 25.5313 6.86114 25.9142 6.42679 27.3056C6.11022 28.3068 5.53599 29.3669 3.96789 29.3669C3.45992 29.3669 2.9593 29.2712 2.4955 29.0798L2.48077 29.1166C3.87219 30.8246 6.04396 31.8111 8.39243 31.8111C12.7139 31.8111 15.9311 28.4982 15.9311 24.2062C15.9016 20.2823 13.1924 17.1976 9.09182 16.7338Z" fill="#B6B6B6"/>
</svg>
