<svg width="48" height="48" viewBox="0 0 48 48" fill="none" xmlns="http://www.w3.org/2000/svg">
<path fill-rule="evenodd" clip-rule="evenodd" d="M23.5217 10.5014L23.2774 10.5869L23.0132 10.746L22.8239 10.9218L22.7218 11.1429L22.6581 11.4258L22.6361 11.6721L22.6581 11.9149L22.7218 12.1975L22.8239 12.4152L22.976 12.5509L23.1867 12.6697L23.379 12.7454L23.6302 12.782L23.928 12.7837L24.1743 12.7454L24.4069 12.6348L24.6549 12.4607L24.827 12.2802L24.9194 12.0421L24.968 11.7426L24.9699 11.4846L24.9194 11.247L24.8225 10.9793L24.6923 10.7868L24.3902 10.6329L23.9836 10.5505L23.5217 10.5014ZM14.3672 13.6306L14.1047 13.6341L13.8126 13.6386L13.4956 13.6438L13.1587 13.6498L12.8068 13.6563L12.4453 13.6632L12.0787 13.6705L11.7121 13.6784L11.3506 13.6864L10.9987 13.6946L10.6618 13.7031L10.3448 13.7113L10.0527 13.7195L9.79022 13.7275L9.51256 13.7384L9.19879 13.7576L8.85639 13.7828L8.49233 13.8112L8.11382 13.8405L7.72858 13.8684L7.3436 13.8923L6.96609 13.9095L6.60326 13.9177L6.26285 13.9145L5.95208 13.8971L5.67791 13.8632L5.40996 13.7828L5.10043 13.6558L4.83747 13.5405L4.67336 13.4598L4.48112 13.356L4.32723 13.2553L4.22488 13.155L4.10933 13.028L3.99703 12.9326L3.73082 12.8089L3.39789 12.7088L3.11176 12.7L2.7335 12.9062L2.35698 13.2641L2.12888 13.6306L2.11768 14.0627L2.23994 14.5764L2.41401 14.9885L2.63514 15.2595L2.95314 15.5354L3.25445 15.7314L3.50745 15.8267L3.82197 15.8987L4.09489 15.9191L4.46668 15.8305L4.8915 15.6701L5.25806 15.5513L5.54319 15.4975L5.8821 15.4457L6.25389 15.3977L6.63738 15.3541L7.01091 15.317L7.35356 15.2873L7.64417 15.2664L7.89916 15.252L8.1803 15.2393L8.48411 15.2283L8.80684 15.2189L9.14451 15.2107L9.49338 15.2039L9.84998 15.1984L10.2103 15.1937L10.5706 15.1897L10.9272 15.1867L11.2761 15.1843L11.6138 15.1823L11.9365 15.1808L12.2403 15.1795L12.5217 15.1783L12.7767 15.177L13.2073 15.1735L13.7095 15.1753L14.1349 15.177L14.1025 15.4375L14.0592 15.7189L14.0061 16.0185L13.9446 16.333L13.8759 16.6597L13.8014 16.9956L13.7222 17.3378L13.6398 17.6834L13.5556 18.0293L13.4705 18.3725L13.3861 18.7099L13.3036 19.0388L13.2242 19.3561L13.1495 19.6591L13.0805 19.9445L13.0183 20.2095L12.9647 20.4513L12.9229 20.6495L12.8756 20.8711L12.8233 21.1149L12.766 21.3794L12.7042 21.6632L12.6385 21.9648L12.5693 22.2831L12.4966 22.6165L12.4209 22.9639L12.3424 23.3237L12.2617 23.6948L12.1788 24.0753L12.0944 24.464L12.0087 24.8599L11.9221 25.2611L11.4106 25.2937L10.9295 25.3228L10.478 25.3487L10.0552 25.3707L9.66023 25.3901L9.29243 25.406L8.95102 25.4197L8.63551 25.4304L8.34491 25.4391L8.07846 25.4454L7.83541 25.4493L7.61503 25.4518L7.41656 25.4523L7.23926 25.4513L7.08238 25.4488L6.83784 25.4591L6.55172 25.464L6.33208 25.4038L6.30892 25.3654L6.2905 25.3099L6.28726 25.2613L6.32909 25.1762L6.4028 25.089L6.47477 25.0288L6.73126 24.889L7.04901 24.763L7.40884 24.6492L7.79258 24.5466L8.1808 24.4548L8.55458 24.3726L8.89524 24.2991L9.1836 24.2334L9.50534 24.1629L9.88509 24.0909L10.2118 24.0456L10.3744 24.0491L10.5669 24.0573L10.7295 24.0456L11.0358 23.9483L11.3837 23.7926L11.6599 23.6253L11.8369 23.4559L12.0177 23.2316L12.125 23.0174L12.13 22.8264L12.0902 22.6006L12.0351 22.4096L11.9427 22.2036L11.8073 21.9728L11.6601 21.8017L11.4808 21.7101L11.2515 21.6433L11.0522 21.6217L10.7074 21.7123L10.3139 21.8911L9.97897 22.0418L9.69758 22.1307L9.3634 22.2285L8.99759 22.3321L8.62132 22.4382L8.25626 22.5435L7.92381 22.6451L7.64541 22.7398L7.39614 22.8314L7.11624 22.9352L6.81169 23.05L6.48872 23.1741L6.15279 23.306L5.81039 23.4445L5.46674 23.5877L5.12857 23.7343L4.80136 23.8828L4.49108 24.0317L4.20371 24.1793L3.94523 24.3248L3.72136 24.4657L3.39365 24.709L3.04403 25.0305L2.8361 25.3587L2.83161 25.613L2.90856 25.912L3.02386 26.1464L3.25345 26.3505L3.57469 26.5348L3.8643 26.6638L4.18329 26.7572L4.57699 26.8379L4.99808 26.9046L5.39925 26.9547L5.73244 26.9868L6.00387 27.0037L6.31341 27.0149L6.65257 27.0202L7.0129 27.0212L7.38593 27.0177L7.7632 27.0105L8.13623 27.0002L8.49656 26.9875L8.83572 26.9733L9.14526 26.9579L9.41669 26.9415L9.72497 26.9268L10.104 26.9113L10.5179 26.8976L10.931 26.8894L11.3077 26.8889L11.3889 26.9298L11.4215 27.0085L11.4278 27.0839L11.4158 27.2445L11.3914 27.4328L11.3553 27.6467L11.3085 27.8855L11.2517 28.1462L11.186 28.4279L11.1123 28.7279L11.0313 29.0449L10.9439 29.3771L10.851 29.723L10.7537 30.0801L10.6526 30.4469L10.5487 30.8209L10.4426 31.2012L10.3356 31.5854L10.2282 31.9722L10.1217 32.3594L9.93564 32.7563L9.69484 33.2135L9.55888 33.6202L9.58253 34.0405L9.69783 34.5211L9.88136 34.881L10.1463 35.0829L10.5154 35.258L10.9071 35.3855L11.2395 35.4437L11.6496 35.4081L12.125 35.2841L12.5003 35.1133L12.7346 34.8959L12.9687 34.5928L13.153 34.3254L13.2249 34.1882L13.3036 34.0276L13.3856 33.9051L13.4769 33.8393L13.6831 33.7178L14.0706 33.483L14.7064 33.0798L14.6792 33.4374L14.6287 33.8079L14.6015 34.0405L14.5863 34.1496L14.5512 34.2716L14.5111 34.3707L14.3757 34.5615L14.2016 34.7779L14.091 34.9788L14.0696 35.194L14.0948 35.4552L14.1349 35.6761L14.1936 35.9256L14.289 36.212L14.4125 36.4264L14.6389 36.5718L14.9412 36.6886L15.2074 36.7489L15.5406 36.7641L15.932 36.7242L16.2353 36.6144L16.3945 36.4062L16.5217 36.1169L16.6106 35.8638L16.7042 35.5439L16.7847 35.1606L16.7984 34.8356L16.7364 34.6852L16.6378 34.5159L16.5658 34.3705L16.4886 34.0218L16.4353 33.6035L16.4233 33.2452L16.4619 33.0088L16.5374 32.7332L16.6109 32.5021L16.6711 32.2914L16.7531 32.0454L16.8434 31.8494L16.9087 31.7657L16.9958 31.6781L17.076 31.6091L17.2887 31.4973L17.5514 31.3835L17.7743 31.2866L17.9937 31.1576L18.2499 31.0102L18.4795 30.9562L18.5313 30.9898L18.5831 31.0453L18.6147 31.0989L18.6513 31.3571L18.6329 31.6714L18.6145 31.9393L18.606 32.09L18.5978 32.264L18.6145 32.4045L18.663 32.4896L18.7335 32.5768L18.802 32.637L19.0398 32.7227L19.3396 32.7695L19.5976 32.7797L19.8404 32.7476L20.12 32.6791L20.3479 32.5925L20.5103 32.4934L20.6861 32.3562L20.8136 32.217L20.8616 32.0934L20.89 31.9378L20.9032 31.8041L20.9072 31.4111L20.8781 30.938L20.8392 30.4644L20.8136 30.0714L20.8034 29.8637L20.7984 29.6209L20.8136 29.4182L20.8688 29.2227L20.9558 28.9966L21.0461 28.8109L21.1766 28.6353L21.3507 28.446L21.5113 28.3001L21.6418 28.2199L21.8009 28.1358L21.9314 28.0603L22.0572 27.9834L22.2011 27.8848L22.3069 27.7827L22.4558 27.4933L22.5781 27.127L22.6371 26.807L22.6234 26.6563L22.5831 26.4803L22.5395 26.3344L22.5161 26.2761L22.4827 26.2056L22.4494 26.1473L22.3739 26.0918L22.2768 26.0296L22.2165 25.9596L22.2183 25.8306L22.2648 25.6735L22.3067 25.5392L22.342 25.3602L22.3839 25.148L22.4494 24.9837L22.5231 24.902L22.6282 24.8233L22.727 24.7967L22.8239 24.8666L22.9076 24.9989L22.9594 25.1189L23.0343 25.3806L23.0886 25.6837L23.126 26.0198L23.1494 26.3802L23.1621 26.7552L23.1673 27.136L23.168 27.5135L23.1678 27.8788L23.1695 28.2232L23.1763 28.5364L23.1914 28.8114L23.2211 29.087L23.2622 29.4028L23.3112 29.7492L23.3645 30.1155L23.4186 30.4925L23.4691 30.869L23.5132 31.2353L23.5466 31.5817L23.5655 31.898L23.5667 32.1731L23.5264 32.5452L23.442 32.9912L23.3503 33.4376L23.2891 33.8092L23.2507 34.104L23.2223 34.4522L23.244 34.747L23.358 35.0246L23.5453 35.3272L23.7542 35.5349L24.0222 35.6206L24.3569 35.6472L24.64 35.6325L24.8778 35.5668L25.1472 35.4475L25.4351 35.3021L25.6393 35.2144L25.8537 35.0538L25.9977 34.8817L26.0676 34.6006L26.0778 34.2475L26.0427 33.9514L25.9319 33.6416L25.7529 33.2935L25.5773 33.0133L25.4767 32.9117L25.3477 32.7979L25.2471 32.6908L25.1941 32.5785L25.1455 32.4381L25.1124 32.3161L25.0496 32.0608L24.9874 31.7754L24.9266 31.4637L24.8669 31.1315L24.8086 30.7838L24.7521 30.4255L24.6975 30.0612L24.646 29.6969L24.5969 29.3375L24.5511 28.9874L24.5093 28.6517L24.4709 28.336L24.4363 28.0451L24.4067 27.7839L24.3285 27.3486L24.255 26.8384L24.3168 26.4332L24.3638 26.3914L24.4373 26.3578L24.5045 26.3354L24.8006 26.2823L25.159 26.2487L25.5479 26.2318L25.9379 26.2273L26.2982 26.2325L26.5978 26.2452L26.9315 26.2646L27.3326 26.2958L27.7639 26.3428L28.191 26.4101L28.5767 26.501L28.886 26.6205L28.9744 26.6788L29.0648 26.7644L29.1184 26.8528L29.1169 26.9116L29.095 26.9816L29.0735 27.0403L28.9627 27.323L28.8183 27.6507L28.6539 28.0053L28.4819 28.3691L28.3145 28.7227L28.1646 29.0492L28.0453 29.3288L27.9223 29.6197L27.7764 29.9713L27.631 30.3458L27.5099 30.7047L27.4375 31.0097L27.4126 31.3026L27.4223 31.6522L27.4826 31.94L27.632 32.193L27.8561 32.4503L28.0899 32.5932L28.4216 32.5407L28.8014 32.3549L29.1179 32.1726L29.198 32.1303L29.3163 32.069L29.471 31.9884L29.6622 31.8892L29.8873 31.7715L30.1466 31.6347L30.4384 31.4796L30.7614 31.3065L31.115 31.1148L31.4977 30.9051L31.9081 30.678L32.3459 30.4325L32.8098 30.1693L33.0691 29.9713L33.3716 29.7188L33.6794 29.4401L33.9551 29.161L34.1603 28.9085L34.3358 28.587L34.4949 28.1848L34.5806 27.8282L34.5856 27.6171L34.5555 27.371L34.4902 27.1751L34.2106 26.9108L33.8121 26.6668L33.4625 26.4775L33.1779 26.3291L32.8462 26.1735L32.4784 26.0126L32.0869 25.8483L31.6838 25.6819L31.7241 25.592L31.7761 25.4899L31.8267 25.4043L31.865 25.339L31.9151 25.2671L31.9691 25.217L32.2769 25.145L32.6637 25.1435L32.9973 25.1717L33.4172 25.2446L33.8462 25.3221L34.2738 25.4033L34.6882 25.4869L35.0796 25.5716L35.4367 25.6553L35.7485 25.7375L36.0047 25.8166L36.1945 25.8911L36.3063 25.9596L36.3364 26.0151L36.3534 26.0871L36.3586 26.1473L36.2973 26.4873L36.1641 26.8847L35.9958 27.2996L35.8279 27.69L35.6982 28.0155L35.5956 28.2976L35.4691 28.6323L35.3324 28.9931L35.1997 29.355L35.0844 29.6934L35.0007 29.9813L34.9292 30.2965L34.8563 30.6808L34.7915 31.0899L34.744 31.4794L34.723 31.8048V32.0865L34.7479 32.4192L34.8132 32.6906L34.9459 32.8928L35.1379 33.1035L35.3309 33.2459L35.5264 33.3097L35.7724 33.3398L35.9836 33.3433L36.2545 33.2965L36.5678 33.2076L36.824 33.1107L37.202 32.8826L37.6286 32.578L37.9869 32.3153L38.2614 32.0922L38.5814 31.8018L38.9238 31.511L39.2637 31.2869L39.5779 31.1975L39.6295 31.2127L39.6835 31.2478L39.7204 31.2876L39.7453 31.3581L39.7605 31.4447L39.7654 31.5202L39.7002 31.8484L39.5782 32.2249L39.4883 32.5484L39.4527 32.7693L39.4255 33.0305L39.4352 33.2464L39.5042 33.422L39.6118 33.6132L39.7209 33.7639L39.8511 33.8859L40.0252 34.0094L40.1858 34.0863L40.4189 34.1247L40.6985 34.1232L40.9363 34.0863L41.1707 34.0027L41.4349 33.8675L41.6343 33.719L41.7379 33.5395L41.8231 33.3104L41.8669 33.1109L41.8517 32.9466L41.8069 32.7573L41.7768 32.5935L41.7529 32.2573L41.7422 31.8492L41.7354 31.4395L41.7242 31.0996L41.7058 30.939L41.6824 30.7497L41.6789 30.5891L41.7758 30.2716L41.9381 29.9043L42.1117 29.5405L42.2419 29.2312L42.3363 28.9154L42.4354 28.5297L42.5345 28.1198L42.6264 27.7309L42.7066 27.4079L42.7689 27.1297L42.8281 26.7985L42.8904 26.4332L42.9599 26.0545L43.041 25.6814L43.1394 25.334L43.2587 25.0325L43.4046 24.7967L43.4601 24.7481L43.5321 24.7078L43.5919 24.699L43.6591 24.7695L43.7077 24.8838L43.7348 24.9839L43.7869 25.2616L43.822 25.5801L43.8429 25.9307L43.8516 26.3047L43.8506 26.6925L43.8424 27.0859L43.8297 27.4749L43.8145 27.8509L43.7993 28.205L43.7871 28.528L43.7794 28.8111L43.7754 29.0679L43.7692 29.3485L43.761 29.6506L43.7503 29.97L43.7381 30.3047L43.7244 30.6516L43.7092 31.0067L43.6937 31.3685L43.6773 31.7329L43.6609 32.0972L43.6439 32.4585L43.6275 32.8136L43.6115 33.16L43.5961 33.4942L43.5819 33.8127L43.5687 34.1137L43.557 34.3934L43.5473 34.6491L43.5423 34.8996L43.5418 35.1711L43.5453 35.4619L43.5515 35.7692L43.5598 36.0912L43.5695 36.4249L43.5802 36.7688L43.5904 37.1204L43.6001 37.477L43.6078 37.8363L43.613 38.1962L43.615 38.5545L43.613 38.9091L43.6063 39.2572L43.5941 39.5967L43.5757 39.9254L43.5495 40.2411L43.5159 40.5417L43.4736 40.8243L43.4215 41.0865L43.3593 41.3268L43.2791 41.4795L43.1623 41.6448L43.0821 41.7923L43.0239 42.1912L43.0204 42.6668L43.0821 43.0608L43.2343 43.3735L43.4771 43.7129L43.7348 43.946L44.0165 44.0195L44.3711 44.0277L44.6726 43.9914L44.9772 43.8935L45.3186 43.7281L45.5584 43.5259L45.6518 43.2059L45.665 42.7978L45.6485 42.4529L45.6164 42.0288L45.5429 41.5385L45.4159 41.1396L45.1415 40.7919L45.0496 40.5892L45.0404 40.4871L45.0424 40.2346L45.0439 39.956L45.0444 39.6544L45.0439 39.3334L45.0434 38.996L45.0419 38.6459L45.0404 38.2861L45.0389 37.9198L45.0369 37.5502L45.0349 37.1817L45.0325 36.8163L45.0305 36.458L45.0285 36.1104L45.027 35.7757L45.0255 35.4587L45.0245 35.1611L45.024 34.8877L45.0245 34.6412L45.025 34.4248L45.0183 34.2034L45.0115 33.9569L45.0048 33.6874L44.9986 33.3976L44.9924 33.0893L44.9866 32.7648L44.9814 32.4274L44.9762 32.0787L44.9717 31.7212L44.9667 31.3578L44.9627 30.99L44.9592 30.621L44.9558 30.2524L44.9528 29.8871L44.9508 29.5273L44.9488 29.1757L44.9478 28.8338L44.9468 28.5051V28.1913L44.9473 27.8952L44.9483 27.6186L44.9503 27.3643L44.958 27.0575L44.9722 26.6897L44.9896 26.2913L45.0085 25.8928L45.0265 25.525L45.0402 25.2183L45.0519 24.957L45.0636 24.6789L45.0763 24.385L45.089 24.0772L45.1017 23.756L45.1154 23.4236L45.1291 23.0807L45.1428 22.7286L45.1565 22.3687L45.1707 22.0024L45.1854 21.6309L45.1995 21.2556L45.2142 20.8776L45.2289 20.4986L45.403 20.2506L45.5751 19.936L45.6938 19.6581L45.7994 19.2679L45.8764 18.7978L45.8816 18.3976L45.7959 17.9773L45.6219 17.5021L45.3714 17.1819L45.0561 17.0995L44.647 17.1152L44.2378 17.1996L43.9226 17.3241L43.6434 17.5671L43.3792 17.9217L43.2251 18.2547L43.2313 18.5946L43.3232 18.9948L43.4049 19.3349L43.4452 19.4955L43.487 19.6845L43.5025 19.8452L43.4923 19.9072L43.4723 19.9756L43.4572 20.0327L43.3949 20.2889L43.3294 20.5738L43.2584 20.8851L43.1835 21.2165L43.106 21.5629L43.0264 21.9187L42.9447 22.2793L42.8625 22.6397L42.7798 22.9945L42.6976 23.3389L42.6165 23.6679L42.5368 23.9764L42.4598 24.259L42.3859 24.511L42.295 24.8213L42.1837 25.1958L42.0519 25.5846L41.8993 25.9357L41.7257 26.1994L41.7008 26.2178L41.6652 26.2358L41.6356 26.244L41.5101 26.1919L41.3759 26.0936L41.2601 26.0114L41.1535 25.9544L41.0295 25.8906L40.9376 25.8234L40.9157 25.7952L40.8972 25.7596L40.885 25.726L40.828 25.4249L40.7897 25.0688L40.7672 24.6759L40.7585 24.2635L40.7595 23.8504L40.7677 23.4539L40.7809 23.0926L40.7951 22.7843L40.8288 22.4895L40.893 22.1454L40.9737 21.7686L41.0588 21.3764L41.1343 20.9852L41.1868 20.6116L41.2033 20.2727L41.1702 19.9854L41.0646 19.751L40.891 19.5018L40.7052 19.3324L40.392 19.2321L40.0005 19.195L39.677 19.2348L39.4275 19.3924L39.176 19.64L39.0164 19.8875L39.0119 20.2207L39.0889 20.6223L39.1143 20.9605L38.9868 21.3106L38.7791 21.7058L38.5963 22.041L38.4484 22.3376L38.2683 22.6905L38.0714 23.0707L37.8714 23.4497L37.6841 23.7988L37.5233 24.089L37.4366 24.2802L37.3275 24.5011L37.2005 24.6522L37.1704 24.6604L37.1336 24.6585L37.1029 24.6522L36.9717 24.6211L36.8126 24.5686L36.6233 24.4981L36.4014 24.4139L36.1457 24.3195L35.8528 24.2199L35.5212 24.1178L35.1481 24.0175L34.7318 23.9231L34.2701 23.8384L33.7603 23.7677L33.201 23.7144L33.4996 23.1795L33.7451 22.7512L33.9284 22.4611L34.0509 22.3189L34.2066 22.1633L34.3485 22.041L34.7074 21.7915L35.1456 21.5203L35.5192 21.291L35.6982 21.1819L35.9109 21.0494L36.0747 20.9154L36.3073 20.6042L36.5349 20.2042L36.6828 19.8427L36.7508 19.4624L36.7742 19.0072L36.7274 18.627L36.6315 18.4247L36.4779 18.2091L36.3071 18.0719L35.9607 18.0169L35.5356 18.0619L35.1887 18.162L34.8642 18.3832L34.5228 18.7061L34.2584 19.0025L34.0537 19.2913L33.8353 19.6574L33.6159 20.0516L33.4102 20.4249L33.2307 20.7284L33.0638 20.976L32.8624 21.2643L32.64 21.5766L32.4114 21.8968L32.1905 22.2081L31.9911 22.4945L31.8272 22.7393L31.692 22.9723L31.551 23.2555L31.4031 23.5715L31.2485 23.9034L31.0851 24.2346L30.913 24.5484L30.7308 24.828L30.5383 25.0556L30.3341 25.2158L30.3039 25.2193L30.2671 25.2173L30.237 25.2158L29.8532 25.1687L29.4047 25.0952L29.0215 25.028L28.6315 24.9959L28.1783 24.9473L27.8583 24.7957L27.8486 24.765V24.7287L27.8583 24.6981L28.0441 24.4675L28.33 24.2409L28.6632 24.0274L28.9896 23.8364L29.2541 23.6778L29.4583 23.5456L29.6996 23.4002L29.914 23.3028L30.0614 23.2824L30.237 23.2757L30.3794 23.2503L30.6887 23.0578L31.0151 22.7751L31.2647 22.5074L31.486 22.2059L31.7069 21.8259L31.8279 21.4792L31.826 21.2768L31.7774 21.0442L31.685 20.8716L31.3986 20.7162L31.0037 20.6241L30.6573 20.5937L30.3859 20.6306L30.0731 20.7192L29.8169 20.8263L29.5927 20.977L29.3487 21.1859L29.1644 21.3816L29.074 21.5724L28.9869 21.8084L28.8868 21.9895L28.6714 22.1703L28.3887 22.3458L28.0633 22.5149L27.7204 22.6773L27.3837 22.8319L27.0791 22.9781L26.8306 23.1148L26.5587 23.302L26.2407 23.5411L25.9055 23.7941L25.582 24.0225L25.2994 24.1878L25.0534 24.3001L24.7553 24.4032L24.5043 24.4201L24.4487 24.3865L24.3967 24.331L24.3616 24.2775L24.3232 24.1066L24.315 23.898L24.3165 23.7224V23.4492L24.3247 23.1367L24.3394 22.7945L24.3589 22.4327L24.3823 22.0612L24.4082 21.6899L24.4343 21.3288L24.4602 20.9877L24.4841 20.6766L24.5045 20.4057L24.5197 20.0489L24.5446 19.632L24.5947 19.2801L24.764 18.8954L25.0033 18.4571L25.1575 18.0721L25.1891 17.7088L25.1687 17.2803L25.0601 16.9468L24.7737 16.7145L24.3584 16.5387L23.9871 16.4816L23.5754 16.6091L23.1304 16.8768L22.8241 17.1794L22.7504 17.4187L22.73 17.72L22.7265 17.9745L22.7415 18.3715L22.7766 18.8384L22.7716 19.2351L22.7263 19.4948L22.6588 19.7819L22.5726 20.0919L22.471 20.4196L22.358 20.7593L22.237 21.1059L22.1117 21.4546L21.9854 21.8002L21.8619 22.1374L21.7446 22.4616L21.6371 22.7672L21.5432 23.0493L21.466 23.3025L21.3885 23.5827L21.3069 23.9004L21.222 24.2491L21.1343 24.6201L21.0454 25.0073L20.9555 25.4033L20.83 25.465L20.6709 25.5171L20.5354 25.5385L20.3462 25.5288L20.132 25.4835L19.9726 25.4033L19.9477 25.3614L19.9328 25.3079L19.9276 25.2608L19.8982 24.9869L19.8845 24.6722L19.884 24.3263L19.8937 23.9595L19.9109 23.5827L19.9333 23.2054L19.9577 22.8381L19.9818 22.4912L20.0025 22.1747L20.0177 21.8991L20.0267 21.5826L20.0296 21.2023L20.0356 20.7914L20.0533 20.3823L20.0919 20.0078L20.1601 19.7007L20.2973 19.4614L20.4931 19.197L20.6253 18.9577L20.6587 18.7365L20.6569 18.4736L20.6253 18.2524L20.506 17.864L20.3118 17.4274L20.0625 17.1341L19.7094 17.0524L19.2629 17.0808L18.8996 17.1792L18.6249 17.3786L18.3537 17.6804L18.1941 17.9748L18.2297 18.2831L18.3587 18.6446L18.4342 18.9579L18.4143 19.2318L18.3632 19.5423L18.2875 19.8805L18.1931 20.2371L18.0863 20.6022L17.9732 20.9665L17.8607 21.3208L17.7544 21.6558L17.6607 21.9618L17.5863 22.2295L17.5173 22.4985L17.4418 22.7933L17.3602 23.1106L17.2735 23.447L17.1829 23.7996L17.0892 24.1651L16.9931 24.5402L16.8957 24.9214L16.7981 25.3062L16.7613 25.3582L16.7075 25.4117L16.6557 25.4486L16.5688 25.4638L16.4649 25.4588L16.378 25.4486L16.2371 25.4471L16.0511 25.4421L15.8601 25.411L15.8469 25.1308L15.8337 24.8196L15.8207 24.4844L15.8085 24.1313L15.7971 23.7677L15.7869 23.3999L15.7784 23.0346L15.7717 22.6785L15.7672 22.3383L15.7652 22.0206L15.7659 21.732L15.7699 21.4792L15.7732 21.2367L15.7747 20.9692L15.7749 20.6799L15.7747 20.3716L15.7744 20.0469L15.7747 19.7087L15.7761 19.3596L15.7794 19.0025L15.7851 18.6401L15.7936 18.2756L15.8055 17.9113L15.8217 17.5499L15.8426 17.1946L15.8688 16.848L15.9009 16.5128L15.9395 16.1918L15.9851 15.888L16.0384 15.6039L16.1001 15.3424L16.1703 15.1063L16.25 14.8984L16.33 14.8994L16.4151 14.9009L16.5055 14.9029L16.6016 14.9051L16.7032 14.9081L16.8108 14.9113L16.9244 14.9151L17.0439 14.9193L17.1697 14.9238L17.3021 14.9288L17.4411 14.934L17.5868 14.9397L17.7394 14.9457L17.8993 14.9522L18.0661 14.9589L18.2404 14.9661L18.4222 14.9736L18.6117 14.9816L18.8092 14.9898L19.0146 14.9982L19.2283 15.007L19.4502 15.0162L19.6805 15.0256L19.9193 15.0353L20.1671 15.0453L20.4238 15.0558L20.6896 15.0662L20.9647 15.0769L21.2491 15.0879L21.5432 15.0991L21.847 15.1105L22.1605 15.1222L22.4842 15.1342L22.8179 15.1464L23.1621 15.1589L23.5167 15.1716L23.882 15.1843L24.2582 15.1972L24.6455 15.2104L25.0434 15.2238L25.453 15.2373L25.8741 15.251L26.3064 15.2647L26.7509 15.2786L27.2066 15.2928L27.675 15.307L28.1557 15.3215L28.6485 15.3359L29.1537 15.3504L29.6717 15.365L30.2028 15.3797L30.7467 15.3947L31.3035 15.4096L31.874 15.4246L32.4577 15.4395L33.0549 15.4544L33.6662 15.4694L34.2621 15.6529L34.6182 15.8364L34.8142 15.9647L35.1407 16.0917L35.5505 16.1502L35.8872 16.1071L36.2052 15.8673L36.5048 15.4891L36.6828 15.1242L36.7262 14.7843L36.7042 14.3637L36.6246 13.9499L36.4951 13.6314L36.4517 13.5704L36.3798 13.4862L36.2792 13.3873L36.1484 13.282L35.9878 13.1787L35.7966 13.0855L35.5747 13.0111L35.3212 12.9637L35.0361 12.9515L34.7186 12.9832L34.3689 13.0668L33.9857 13.211L33.5688 13.4239L33.1179 13.7138L32.9587 13.7195L32.7792 13.7252L32.5802 13.7312L32.3628 13.737L32.1285 13.7432L31.8775 13.7492L31.6115 13.7551L31.3314 13.7611L31.0381 13.7671L30.7325 13.7728L30.416 13.7783L30.0895 13.7838L29.7539 13.7892L29.4105 13.7945L29.0603 13.7995L28.7042 13.8042L28.3434 13.8087L27.9786 13.8129L27.6113 13.8166L27.2423 13.8204L26.8727 13.8236L26.5037 13.8266L26.1359 13.8288L25.7705 13.8308L25.4087 13.8323L25.0516 13.8333L24.7 13.8338H24.3551L24.0179 13.8333L23.6895 13.8323L23.3707 13.8308L23.063 13.8286L22.7671 13.8259L22.484 13.8224L22.215 13.8181L21.9533 13.8132L21.6657 13.8064L21.3557 13.7977L21.0265 13.7875L20.6818 13.776L20.3247 13.7633L19.9592 13.7497L19.5881 13.7352L19.2154 13.7203L18.8438 13.7051L18.4775 13.6896L18.1194 13.6747L17.773 13.66L17.4421 13.6458L17.1298 13.6326L16.8397 13.6204L16.5752 13.6095L16.3394 13.5997L16.3872 13.3236L16.4301 13.023L16.4687 12.702L16.5038 12.3646L16.5362 12.0142L16.5665 11.6544L16.5959 11.2891L16.6246 10.922L16.6537 10.5567L16.6841 10.1969L16.7162 9.84627L16.7513 9.50885L16.7894 9.18786L16.8317 8.88729L16.8791 8.61088L16.9333 8.36286L17.0275 8.07599L17.1662 7.7418L17.3253 7.38371L17.4807 7.02562L17.6082 6.69144L17.6834 6.40457L17.715 6.01933L17.7016 5.56413L17.6383 5.18885L17.515 4.86812L17.328 4.4911L17.0972 4.15916L16.8429 3.97339L16.4714 4.00726L16.0466 4.20448L15.7248 4.43856L15.5022 4.7583L15.3147 5.18163L15.2071 5.55666L15.2208 5.98372L15.3013 6.48749L15.3498 6.91456L15.3448 7.18549L15.3307 7.48855L15.3082 7.818L15.2786 8.16763L15.243 8.53144L15.2027 8.90398L15.1586 9.27925L15.1118 9.65079L15.0635 10.0134L15.0146 10.3607L14.9666 10.6867L14.9203 10.9858L14.8769 11.2517L14.8314 11.5262L14.7731 11.8312L14.7044 12.1614L14.6272 12.5118L14.544 12.8768L14.4563 13.2516L14.3672 13.6306ZM13.4817 25.3062L13.5419 24.7521L13.6072 24.2541L13.6759 23.8095L13.7469 23.4161L13.8189 23.0715L13.8903 22.7731L13.96 22.5189L14.027 22.306L14.0895 22.1322L14.1097 22.0669L14.1396 21.9949L14.1797 21.9446L14.2531 21.9207L14.3515 21.9285L14.4048 22.0198L14.4287 22.7542L14.4506 23.3653L14.4703 23.8658L14.4882 24.2682L14.5044 24.5857L14.5191 24.8313L14.5323 25.017L14.544 25.1562L14.5547 25.2613L14.3635 25.2598L14.1877 25.2578L14.0367 25.2613L13.8629 25.273L13.6555 25.29L13.4817 25.3062ZM13.219 26.7545L13.8801 26.7492L14.2512 26.734L14.4571 26.7545L14.5241 26.7709L14.5928 26.805L14.6449 26.8969L14.6334 27.4592L14.6264 27.9781L14.6227 28.4543L14.6214 28.8905L14.6217 29.2875L14.6222 29.6478V29.9733L14.6207 30.2651L14.6165 30.5254L14.6087 30.756L14.5965 30.9582L14.5791 31.1347L14.555 31.2864L14.5296 31.3618L14.4927 31.449L14.4573 31.519L14.4339 31.566L14.4006 31.6196L14.3672 31.6614L14.0507 31.8828L13.646 32.0987L13.2944 32.2695L12.9341 32.4436L12.504 32.6308L12.1238 32.7349L12.0466 32.7329L11.9579 32.7165L11.8909 32.6898L11.8526 32.6398L11.8192 32.5678L11.8008 32.5021L11.8775 32.0897L11.9502 31.6758L12.0194 31.263L12.0862 30.8533L12.1504 30.4497L12.2129 30.0542L12.2742 29.6695L12.3349 29.2979L12.3957 28.9418L12.457 28.6044L12.5192 28.2869L12.5832 27.9921L12.6492 27.7231L12.7179 27.4818L12.7902 27.2707L12.8661 27.0921L12.9463 26.9487L13.0317 26.8431L13.1226 26.7774L13.219 26.7545ZM15.823 26.6641L16.257 26.6601L16.4694 26.6708L16.5132 26.7315L16.4849 26.8381L16.4515 26.9679L16.4231 27.0842L16.254 27.7124L16.1569 28.0992L16.0478 28.2476L16.0311 28.2394L16.0147 28.1955L16.003 28.1124L15.948 27.5817L15.8929 27.0744L15.823 26.6641ZM17.9165 25.2608L17.97 25.099L18.0402 24.9082L18.104 24.7506L18.1896 24.4545L18.3037 24.1166L18.4793 23.9557L18.4994 23.9742L18.5146 24.012L18.5246 24.0456L18.5547 24.2498L18.5647 24.4939L18.5696 24.6981L18.5846 24.8878L18.5998 25.1139L18.6147 25.3585L18.469 25.3682H18.2952L18.1496 25.3585L18.0826 25.3345L18.0039 25.2994L17.9165 25.2608ZM17.8263 26.7094L18.6366 26.7246L18.6326 27.4833L18.6172 28.0309L18.597 28.407L18.5781 28.652L18.5667 28.8056L18.5689 28.9077L18.3311 29.0148L18.1085 29.1134L17.916 29.1854L17.7267 29.2374L17.5024 29.291L17.3084 29.3278L17.3968 28.9125L17.4772 28.5277L17.5407 28.2023L17.6077 27.8666L17.6861 27.4584L17.7633 27.0488L17.8263 26.7094ZM30.3346 27.2722L30.4332 27.1935L30.5286 27.1282L30.6122 27.0844L30.6827 27.061L30.7699 27.0426L30.8453 27.0396L31.1215 27.1213L31.4293 27.2702L31.685 27.4074L31.9933 27.565L32.3499 27.7625L32.6233 27.9702L32.6831 28.0519L32.7386 28.1559L32.7585 28.2478L32.7421 28.2979L32.7052 28.3499L32.6684 28.3903L32.4296 28.5925L32.1193 28.8094L31.7789 29.0238L31.4507 29.2173L31.1755 29.3729L30.8647 29.5338L30.4825 29.716L30.0963 29.8896L29.7728 30.0253L29.6401 30.0856L29.4844 30.1528L29.3522 30.168L29.3138 30.1329L29.2782 30.0756L29.2548 30.0256L29.2665 29.8767L29.3104 29.7041L29.3522 29.5602L29.468 29.1398L29.6221 28.6525L29.7728 28.2473L29.9319 27.9308L30.1411 27.568L30.3346 27.2722ZM39.3919 23.3025L39.57 23.1633L39.7067 23.1942L39.7898 23.4602L39.7281 24.1607L39.6887 24.6577L39.6591 24.9889L39.6265 25.1926L39.5797 25.3059L39.5476 25.3258L39.4664 25.3288L39.3092 25.2982L38.9546 25.1787L38.7265 25.1134L38.5963 25.0736L38.533 25.0532L38.4576 25.0235L38.409 24.9832L38.4177 24.8948L38.4631 24.7872L38.5069 24.6983L38.6304 24.5023L38.7928 24.2814L38.9265 24.0902L39.0771 23.8479L39.2512 23.5553L39.3919 23.3025ZM37.6662 26.5669L37.778 26.4935L37.919 26.4751L38.041 26.477L38.3358 26.5072L38.6822 26.5841L38.9716 26.6643L39.1593 26.7213L39.372 26.8L39.5344 26.8974L39.6262 27.0179L39.7099 27.1765L39.7669 27.317L39.8038 27.5615L39.8155 27.8581L39.812 28.1124L39.7988 28.3619L39.7702 28.658L39.7221 28.9075L39.6482 29.0616L39.5406 29.2337L39.4365 29.3729L39.1334 29.6857L38.7467 30.0251L38.4088 30.3032L38.0721 30.5762L37.6622 30.8807L37.2907 31.0986L37.0897 31.1788L36.8437 31.246L36.638 31.241L36.5207 31.1492L36.4171 31.0032L36.3601 30.866L36.3653 30.5293L36.4572 30.1297L36.5476 29.793L36.6268 29.4068L36.7324 28.9443L36.8502 28.4856L36.968 28.1121L37.1042 27.7513L37.2884 27.3252L37.4869 26.9059L37.6662 26.5669ZM20.25 9.57832L19.9639 9.65403L19.6462 9.81315L19.4098 9.99867L19.2796 10.2263L19.1775 10.5241L19.1322 10.7866L19.1708 11.118L19.2761 11.501L19.4098 11.8071L19.5859 12.0484L19.8269 12.3014L20.0628 12.4675L20.2956 12.5108L20.58 12.509L20.8133 12.4675L21.0491 12.3297L21.2949 12.1171L21.466 11.9044L21.5763 11.6078L21.6433 11.238L21.6535 10.9215L21.5982 10.6137L21.4812 10.2661L21.3308 9.99842L21.143 9.84801L20.8935 9.71404L20.6706 9.62365L20.5548 9.60024L20.4111 9.58704L20.25 9.57832Z" fill="#B6B6B6"/>
</svg>
