<svg width="54" height="24" viewBox="0 0 54 24" fill="none" xmlns="http://www.w3.org/2000/svg">
<path d="M3.84495 19.7933H3.07839L2.93238 18.152H3.69894L3.84495 19.7933ZM50.155 19.7933H50.9216L51.0676 18.152H50.301L50.155 19.7933ZM2.49434 18.1641H1.72778L1.87379 19.8055H2.64036L2.49434 18.1641ZM51.3718 19.7933H52.1383L52.2843 18.152H51.5178L51.3718 19.7933ZM7.72643 20.1945C7.75077 20.766 7.30056 21.2401 6.72868 21.2644C6.71652 21.2644 6.69218 21.2644 6.68001 21.2644C6.09597 21.2644 5.6336 20.7903 5.6336 20.2067C5.6336 20.1945 5.6336 20.1824 5.6336 20.1824V20.1702C5.6336 19.5866 6.0473 19.1003 6.66785 19.1003C7.25189 19.1003 7.71426 19.5745 7.71426 20.1581C7.72643 20.1702 7.72643 20.1702 7.72643 20.1945ZM4.47767 20.1945C4.47767 21.3495 5.41458 22.2736 6.66785 22.2736C7.92111 22.2736 8.88236 21.3374 8.88236 20.1824V20.1702C8.88236 19.0152 7.94545 18.0912 6.69218 18.0912C5.43891 18.0912 4.47767 19.0274 4.47767 20.1945ZM9.58808 22.1884H10.7197V20.7538H12.6543V19.8298H10.7197V19.1489H12.8612V18.1763H9.58808V22.1884ZM13.5182 22.1884H14.6498V20.7538H16.5845V19.8298H14.6498V19.1489H16.7913V18.1763H13.5182V22.1884ZM19.9792 22.1884H21.1108V19.1489H22.3398V18.1763H18.7503V19.1489H19.9792V22.1884ZM23.082 22.1884H24.2136V20.6687H25.6737V22.1884H26.8053V18.1763H25.6737V19.6839H24.2136V18.1763H23.082V22.1884ZM27.5719 22.1884H30.8936V21.2401H28.6913V20.6079H30.6503V19.7325H28.6913V19.1246H30.8571V18.1763H27.5719V22.1884ZM33.9964 22.2249H34.982L35.7972 19.9149L36.6246 22.2249H37.6102L38.9729 18.1763H37.8048L37.087 20.4985L36.2961 18.1641H35.3226L34.5317 20.4985L33.8139 18.1763H32.6214L33.9964 22.2249ZM40.3114 20.6079L40.7738 19.465L41.224 20.6079H40.3114ZM38.4862 22.1884H39.6787L39.9707 21.4711H41.5525L41.8567 22.1884H43.0734L41.3335 18.1398H40.2384L38.4862 22.1884ZM43.5966 22.1884H46.7116V21.2158H44.7282V18.1763H43.5966V22.1884ZM47.3443 22.1884H50.4592V21.2158H48.4759V18.1763H47.3443V22.1884Z" fill="#B6B6B6"/>
<path d="M45.5556 8.07295H43.3533C43.1342 7.53799 42.9031 7.11246 41.6741 7.11246C40.8224 7.11246 40.4574 7.46504 40.4574 7.81763C40.4574 8.20668 40.7616 8.52279 41.6985 8.72948L43.694 9.26443C44.9959 9.61702 45.6286 10.6505 45.6286 11.7325C45.6286 12.3404 45.4948 13.0699 44.9229 13.6778C44.497 14.1277 43.84 14.7234 41.6741 14.7234C38.7052 14.7234 37.7196 12.8511 37.7196 11.7082H40.0315C40.2627 12.535 40.8224 12.8511 41.954 12.8511C42.7327 12.8511 43.4019 12.5714 43.4019 11.9757C43.4019 11.4043 42.9152 11.1976 42.2947 11.0274L40.7251 10.6018C39.9707 10.3708 39.3379 10.1884 38.8877 9.81155C37.7196 8.81459 37.8048 7.02735 39.0703 6.10334C39.776 5.5927 40.4939 5.32522 41.6498 5.32522C43.0004 5.32522 43.767 5.71428 44.3753 6.12766C44.8986 6.46808 45.5434 7.36778 45.5556 8.07295ZM8.43213 1.72644C8.45646 1.79939 13.0315 14.614 13.0315 14.614H15.7692L19.9792 3.95136H46.1397L46.3343 1.72644H17.9716L14.4794 10.5653L11.3402 1.72644H8.43213ZM31.0518 10.0061L34.4709 14.614H36.6124V5.49544H34.1545V10.4559L31.0639 5.5076H28.7034V14.614H31.0639V10.0061H31.0518ZM46.4195 14.1398C46.4195 13.8723 46.2005 13.6535 45.9328 13.6535C45.6651 13.6535 45.4461 13.8723 45.4461 14.1398C45.4461 14.4073 45.6651 14.6261 45.9328 14.6261C46.2005 14.6261 46.4317 14.4073 46.4195 14.1398C46.4317 14.1398 46.4317 14.1398 46.4195 14.1398ZM46.3708 14.1398C46.3708 14.3708 46.1762 14.5653 45.945 14.5653C45.7138 14.5653 45.5191 14.3708 45.5191 14.1398C45.5191 13.9088 45.7138 13.7143 45.945 13.7143C46.1762 13.7021 46.3708 13.8845 46.3708 14.1398C46.3708 14.1277 46.3708 14.1277 46.3708 14.1398ZM46.164 14.0304C46.164 13.9331 46.0788 13.8602 45.9936 13.8602C45.9815 13.8602 45.9815 13.8602 45.9693 13.8602H45.7381V14.3708H45.8476V14.2006H45.9328L46.0423 14.3708H46.1762L46.0545 14.1884C46.1275 14.1763 46.1762 14.1033 46.164 14.0304ZM46.0545 14.0426C46.0545 14.079 46.018 14.1155 45.9815 14.1155H45.9693H45.8598V13.9696H45.9693C46.0058 13.9574 46.0545 13.9818 46.0666 14.0182C46.0545 14.0304 46.0666 14.0304 46.0545 14.0426ZM18.0324 14.614H20.6606L21.1473 13.1915H24.6151L25.114 14.614H27.6935L24.3839 5.5076H21.5975L18.0324 14.614ZM21.8774 11.538L22.8995 8.51064L23.8972 11.538H21.8774Z" fill="#B6B6B6"/>
</svg>
