<?xml version="1.0" encoding="utf-8"?>
<!-- Generator: Adobe Illustrator 24.3.0, SVG Export Plug-In . SVG Version: 6.00 Build 0)  -->
<svg version="1.1" id="Слой_1" xmlns="http://www.w3.org/2000/svg" xmlns:xlink="http://www.w3.org/1999/xlink" x="0px" y="0px"
	 viewBox="0 0 70.2 59" style="enable-background:new 0 0 70.2 59;" xml:space="preserve">
<style type="text/css">
	.st0{clip-path:url(#SVGID_2_);}
	.st1{fill:#FDC305;}
	.st2{fill:#F06351;}
	.st3{fill:#E55645;}
	.st4{fill:#111111;}
	.st5{display:none;fill:#111111;}
	.st6{display:none;fill:#444444;}
</style>
<g>
	<defs>
		<rect id="SVGID_1_" y="0" width="202" height="59"/>
	</defs>
	<clipPath id="SVGID_2_">
		<use xlink:href="#SVGID_1_"  style="overflow:visible;"/>
	</clipPath>
	<g class="st0">
		<path class="st1" d="M59.9,23.8c-1.7-4.1-4.5-7.7-8.1-10.4c-3.6-2.7-7.8-4.4-12.2-5s-9,0-13.1,1.7c-4.1,1.7-7.8,4.4-10.5,7.9
			s-4.5,7.7-5.1,12.1c-0.6,4.4-0.1,8.9,1.6,13c1.7,4.1,4.4,7.7,7.9,10.5s7.7,4.5,12.1,5.2c-0.6-2.1-1.2-4.4-1.7-6.8
			c1.5,1,3.1,1.8,4.8,2.5l0,0c0,0,0.1,2.1,0.3,4.5c1.8,0,3.6-0.1,5.3-0.5c0-0.2,0-0.5,0-0.8c0.3-1.9,1.1-5.2,1.2-7.4
			c1.2-1.1,2.1-2.3,2.9-3.7l0,0l-0.1,0.4c-0.6,4.2-1.7,8.7-2.4,10c-0.2,0.4-0.5,0.8-0.8,1.1c3.6-0.8,7-2.5,9.9-4.7
			c2.9-2.3,5.3-5.1,7-8.4c1.7-3.3,2.7-6.9,2.8-10.6C62,30.9,61.3,27.2,59.9,23.8L59.9,23.8z M58.4,27.6C58,28,57.1,28.3,56.9,27
			c-0.2-1.3-0.2-2.2-0.2-2.2s-1.9-3.4-2.7-3.4c-0.7,0-5.8,3.4-7.2,5c-1.2,1.3-1.4,1.2-1.4,3.4c0,1.7,0.2,8.1,0.1,13l-8.2,2.2
			c-2.6,0.7-5.2,1.3-7.8,1.7l-1-5.8h-0.1l-2.6-13.1c0,0-3.8-1.4-5.2-1.8c-0.7-0.3-1.4-0.4-2.1-0.3c-0.7,0.1-1.4,0.4-1.9,0.9
			c-0.5,0.5-1,1.1-1.3,1.7C15.1,29,15,29.7,15,30.4c0.2,0.5,0.4,0.9,0.5,1.4c0.1,0.5-1.2,0.4-2,0.4c-0.8,0-0.9-1.4-0.3-3.1
			c0.5-1.3,1.1-2.5,1.8-3.7c0.5-1.1,1.2-2,2.1-2.9c0,0,0.1-0.3,1.2-0.2c1.1,0.1,7.3,0.4,7.3,0.4l0.1-2.3c6.7-0.9,13.5-1.4,20.2-1.3
			c0,0.6,0,1.2,0,1.8c2.6-1.2,5.3-1.8,8.1-2c0.2,0,0.3,0,0.4,0.1c0.1,0.1,0.2,0.2,0.3,0.3c0.3,0.4,2.4,3,2.7,3.3
			c0.7,1,1.3,1.9,1.8,3C59.1,26.4,58.8,27,58.4,27.6L58.4,27.6z"/>
		<path class="st2" d="M56.5,21.5c0.5,0.6,0.9,1.1,1,1.3c0.7,1,1.3,1.9,1.8,3c-0.2,0.6-0.5,1.2-0.9,1.8c-0.4,0.4-1.3,0.7-1.5-0.6
			c-0.1-1.3-0.2-2.1-0.2-2.1s-1.9-3.4-2.7-3.4c-0.7,0-5.8,3.4-7.2,5c-1.2,1.3-1.4,1.2-1.4,3.4c0,1.5,0.2,6.6,0.1,11.1
			c1.8,0.2,4.5,0.7,5.3,1.9c0,0-0.3-7.1,7.8-3.4c0,0,0.3-9.7,11.5-7.2C66.4,27.7,61.7,24.1,56.5,21.5L56.5,21.5z"/>
		<path class="st2" d="M45.9,19.2c0-5.5-0.4-11-1.4-16.4c0,0-0.2-1.3-0.9-0.2c-0.6,1.3-1,2.6-1.2,4c-4.3-0.3-8.6-0.2-12.8,0.3
			c-0.8-2.7-2.2-4-2.9-3.6C26.1,3.6,26,6.5,26,6.5l-0.3,14C32.4,19.6,39.2,19.2,45.9,19.2L45.9,19.2z"/>
		<path class="st3" d="M45.4,46.7c0.1-1.1,0.2-2.5,0.2-4l-8.1,2.2c-2.6,0.7-5.2,1.3-7.8,1.8l1.1,5c0,0.1,0,0.2,0.1,0.3
			c1.5,1,3.1,1.8,4.8,2.5c2.4-1.1,4.7-2.5,6.9-4.1v0.1C43.6,49.3,44.6,48.1,45.4,46.7L45.4,46.7z"/>
		<path d="M32,16.1c0-0.1,1,0.7,1.4,0.9c0.4,0.2,0.6,0.4,0.6,0.6c0,0.2-0.3,0.3-0.6,0.3s-0.9-0.1-1-0.3c-0.1-0.1,0.6,0,0.9,0h0.3
			C33,17.2,32.5,16.7,32,16.1z"/>
		<path d="M39.5,16.2c0,0-1,1.3-1.1,1.3c-0.1,0.1-0.2,0.3,0.2,0.3c0.4-0.1,0.8-0.2,1.2-0.3c0.1-0.1,0.1-0.2-0.1-0.2
			c-0.2,0-0.7,0-1,0.1L39.5,16.2C39.6,16.2,39.6,16.1,39.5,16.2z"/>
		<path d="M36.4,22.3c0.5-0.2,0.8-0.6,1.1-1c0.3-0.7,0-0.9-0.4-1c-0.6-0.1-1.2,0-1.8,0.3c-0.4,0.4-0.3,0.7,0,1
			C35.6,21.9,36,22.1,36.4,22.3L36.4,22.3z"/>
		<path class="st2" d="M36,23.5c-0.1,0.2-0.3,0.4-0.5,0.6c-0.3,0.2-0.6,0.4-1,0.4C34,24.5,33.4,24.4,33,24c-0.2-0.1-0.4-0.3-0.5-0.4
			c-0.1-0.1-0.2-0.2-0.4-0.2c0,0,0.8,4.1,2.6,4.7c1.8,0.7,2.2-0.8,2.2-1.1c0.1-1.1-0.2-2.2-0.8-3.2C36.1,23.4,36.1,23.6,36,23.5z"/>
		<path d="M34.3,24.6c-0.5-0.1-0.9-0.2-1.3-0.5c-0.4-0.2-0.8-0.6-1-0.9c0,0,0-0.1,0-0.1s0-0.1,0-0.1c0,0,0,0,0,0c0,0,0,0,0.1,0
			c0,0,0,0,0.1,0c0,0,0,0,0,0c0.2,0.3,0.6,0.6,0.9,0.9c0.4,0.2,0.8,0.4,1.2,0.4c0.3,0,0.7-0.1,0.9-0.3c0.3-0.2,0.5-0.4,0.7-0.7
			l0.1-0.2l0.1,0.2c0,0,0.4,0.8,1,0.8c0.6,0,1.1-0.4,1.6-1.3c0,0,0.1-0.1,0.1-0.1c0,0,0.1,0,0.1,0c0,0,0.1,0.1,0.1,0.1
			c0,0,0,0.1,0,0.1c-0.7,1-1.3,1.4-1.9,1.4c-0.2,0-0.4-0.1-0.6-0.2c-0.2-0.1-0.4-0.3-0.5-0.5c-0.2,0.3-0.4,0.5-0.7,0.7
			C35,24.5,34.6,24.6,34.3,24.6z"/>
		<path class="st1" d="M36.3,38c2.1,0,3.8-1.7,3.8-3.7c0-2.1-1.7-3.7-3.8-3.7c-2.1,0-3.8,1.7-3.8,3.7C32.5,36.3,34.2,38,36.3,38z"/>
		<path class="st4" d="M41.2,31.2l-3.1,1.3l1.1-5.6l-7.5,9.7l3.1-1.3l-1.1,5.6L41.2,31.2z M33.8,35l4.2-5.4l-0.8,4l2-0.8L35,38.2
			l0.8-4L33.8,35z"/>
		<path class="st4" d="M32.4,33.6c0.6,0,1.1-0.5,1.1-1.1c0-0.6-0.5-1.1-1.1-1.1c-0.6,0-1.1,0.5-1.1,1.1
			C31.3,33.1,31.8,33.6,32.4,33.6z"/>
		<path class="st4" d="M39,37.6c0.4,0,0.8-0.4,0.8-0.8c0-0.4-0.4-0.8-0.8-0.8c-0.4,0-0.8,0.4-0.8,0.8C38.2,37.3,38.5,37.6,39,37.6z"
			/>
		<path class="st4" d="M39.9,35.5c0.2,0,0.3-0.2,0.3-0.3c0-0.2-0.2-0.3-0.3-0.3c-0.2,0-0.4,0.2-0.4,0.3
			C39.6,35.3,39.7,35.5,39.9,35.5z"/>
		<path class="st2" d="M45.9,21c-1.8,1.6-3.5,3.3-5.1,5.2c-1.6,1.8-3.4,3.4-5.3,4.9c-0.2-0.5-1.6-1.5-1.6-1.5s-3.1-2.1-5.2-3.8
			c-1.1-0.9-2.2-1.9-3.1-3l-2-0.1c2.9,4.2,7.1,7.3,12,8.8c0.9-0.1,3.3-1.9,5.1-3.3c2.1-1.8,4.1-3.8,6-5.9c0.5-0.6,0.9-1.3,1.1-2
			C46.6,20.7,45.9,21,45.9,21z"/>
		<path class="st1" d="M65.2,3.5l-8.5,9.4l-1.2-2L63.7,0L65.2,3.5z"/>
		<path class="st1" d="M62.7,17.1l5.5-4.1l-0.8-3.7L62,14.1L62.7,17.1z"/>
		<path class="st1" d="M59.9,49l6.1,3.2l3-2.3l-6.7-2.7L59.9,49z"/>
		<path class="st1" d="M1.9,5.9L5,2.6l9.3,8.9l-1.2,2.3L1.9,5.9z"/>
		<path class="st1" d="M7.4,16.1L2.7,13l-2.4,3.8l5.2,2.4L7.4,16.1z"/>
		<path class="st1" d="M13.9,52.1l-4.6,3.3l2.8,3.6l4-4L13.9,52.1z"/>
		<path class="st2" d="M25.9,27.8c0,0-3.8-1.4-5.2-1.8c-0.7-0.3-1.4-0.4-2.1-0.3c-0.7,0.1-1.4,0.4-1.9,0.9c-0.5,0.5-1,1.1-1.3,1.7
			C15.1,29,15,29.7,15,30.4c0.2,0.5,0.4,0.9,0.5,1.4c0,0.5-1.2,0.4-2,0.4c-0.8,0-0.9-1.4-0.3-3.1c0.5-1.3,1.1-2.5,1.8-3.7
			c-5.5,2.8-15,9.3-15,9.3c2.7-0.2,5.5-0.1,8.2,0.2c5.3,0.5,5,4.6,5,4.6c1.8-0.5,3.7-0.9,5.6-1.1c2.1-0.1,2.3,2.1,2.3,2.1l0.5,3.8
			c0.8-0.9,1.7-1.6,2.7-2.3c1.2-1,2.8-1.4,4.4-1.3l0,0L25.9,27.8z"/>
		<path class="st5" d="M85.7,41.7c-1-1.5-1.5-3.3-1.4-5.1v-7.4c-0.1-1.8,0.4-3.7,1.4-5.2c0.9-1.2,2.5-1.8,4.8-1.8
			c2.2,0,3.8,0.5,4.5,1.6c1,1.3,1.4,2.9,1.3,4.5v1.7h-4.1V28c0-0.5,0-1-0.1-1.5c-0.1-0.4-0.2-0.7-0.5-0.9c-0.2-0.1-0.3-0.2-0.5-0.3
			c-0.2-0.1-0.4-0.1-0.6-0.1c-0.3,0-0.6,0-0.9,0.1c-0.3,0.1-0.5,0.3-0.6,0.6c-0.3,0.7-0.4,1.4-0.3,2.2v9.4c0,0.7,0.1,1.5,0.4,2.2
			c0.1,0.2,0.4,0.4,0.6,0.6c0.3,0.1,0.5,0.2,0.8,0.1c0.3,0,0.6,0,0.8-0.1c0.3-0.1,0.5-0.3,0.6-0.6c0.2-0.7,0.3-1.4,0.3-2.2v-2h4.1
			v1.7c0.1,1.6-0.3,3.2-1.2,4.6c-0.9,1.1-2.4,1.6-4.6,1.6C88.3,43.5,86.6,42.9,85.7,41.7z"/>
		<path class="st5" d="M101.9,22.4h4.7l4,20.8h-3.9l-0.7-4.6h-3.3l-0.8,4.6h-4L101.9,22.4z M105.6,36l-1.3-8.4l-1.2,8.4H105.6z"/>
		<path class="st5" d="M113.7,25.5h-3.2v-3.1h10.7v3.1H118v17.7h-4.3L113.7,25.5z"/>
		<path class="st6" d="M129.6,22.4h8.1v2.2h-5.2v6.9h4.2v2.1h-4.2v7.6h5.2v2.1h-8.2V22.4z"/>
		<path class="st6" d="M140.2,22.4h2l6,13.8V22.4h2.4v20.8h-1.9l-6-14.2v14.2h-2.5L140.2,22.4z"/>
		<path class="st6" d="M153.8,22.4h8.1v2.2h-5.2v6.9h4.3v2.1h-4.2v7.6h5.2v2.1h-8.2V22.4z"/>
		<path class="st6" d="M164.4,22.4h4.2c1.7-0.1,3.3,0.3,4.7,1.3c1,0.9,1.5,2.3,1.5,4.2c0,2.6-0.9,4.3-2.6,4.9l3,10.4h-2.8l-2.8-9.8
			h-2.3v9.8h-2.9V22.4z M168.4,31.3c1,0.1,1.9-0.2,2.7-0.8c0.3-0.4,0.5-0.8,0.7-1.3s0.2-0.9,0.1-1.4c0-0.7-0.1-1.3-0.3-2
			c-0.1-0.2-0.2-0.5-0.4-0.6c-0.2-0.2-0.4-0.3-0.6-0.4c-0.6-0.3-1.3-0.4-2.1-0.3h-1.3v6.9L168.4,31.3z"/>
		<path class="st6" d="M178.7,41.7c-1-1.6-1.4-3.5-1.3-5.3v-6.9c0-1.3,0.1-2.7,0.5-4c0.3-1,0.9-1.8,1.7-2.4c1-0.6,2.2-0.9,3.4-0.8
			c0.8-0.1,1.5,0,2.3,0.3c0.7,0.3,1.4,0.7,1.9,1.2c1,1.3,1.4,3,1.3,4.6v0.8h-2.8v-0.6c0-0.8,0-1.5-0.2-2.3c-0.1-0.5-0.4-0.9-0.8-1.2
			c-0.5-0.3-1.1-0.4-1.7-0.4c-0.7-0.1-1.3,0.1-1.8,0.6c-0.4,0.4-0.7,0.9-0.8,1.5c-0.1,0.8-0.2,1.6-0.2,2.5v7.7
			c-0.1,1.2,0.1,2.4,0.6,3.4c0.3,0.3,0.6,0.6,1,0.8c0.4,0.2,0.8,0.3,1.2,0.3c0.4,0,0.9-0.1,1.2-0.3c0.4-0.2,0.7-0.5,1-0.8
			c0.5-1.1,0.7-2.4,0.6-3.6V35h-2.7v-2.1h5.3v10.3h-1.8l-0.3-2.4c-0.2,0.8-0.7,1.5-1.4,2s-1.5,0.7-2.3,0.7c-0.8,0.1-1.6-0.1-2.3-0.4
			C179.8,42.8,179.2,42.3,178.7,41.7z"/>
		<path class="st6" d="M194.7,35.9l-4.5-13.5h2.7l3.2,10l3.2-10h2.8l-4.5,13.5v7.3h-2.8L194.7,35.9z"/>
	</g>
</g>
</svg>
