<svg width="20" height="21" viewBox="0 0 20 21" fill="none" xmlns="http://www.w3.org/2000/svg">
<path d="M10.0005 0.5C8.06102 0.503685 6.16442 1.07131 4.54177 2.13374C2.91911 3.19617 1.64043 4.70754 0.861478 6.48377C0.0825237 8.26 -0.163087 10.2244 0.154563 12.1378C0.472214 14.0511 1.33941 15.8308 2.65054 17.26C3.58696 18.275 4.72348 19.0851 5.98847 19.6392C7.25347 20.1933 8.61952 20.4793 10.0005 20.4793C11.3816 20.4793 12.7476 20.1933 14.0126 19.6392C15.2776 19.0851 16.4141 18.275 17.3505 17.26C18.6617 15.8308 19.5289 14.0511 19.8465 12.1378C20.1642 10.2244 19.9186 8.26 19.1396 6.48377C18.3606 4.70754 17.082 3.19617 15.4593 2.13374C13.8367 1.07131 11.9401 0.503685 10.0005 0.5ZM10.0005 18.5C7.929 18.4969 5.93945 17.6903 4.45054 16.25C4.90258 15.1495 5.67157 14.2083 6.65979 13.5459C7.64801 12.8835 8.81085 12.5298 10.0005 12.5298C11.1902 12.5298 12.3531 12.8835 13.3413 13.5459C14.3295 14.2083 15.0985 15.1495 15.5505 16.25C14.0616 17.6903 12.0721 18.4969 10.0005 18.5ZM8.00054 8.5C8.00054 8.10444 8.11784 7.71776 8.3376 7.38886C8.55736 7.05996 8.86972 6.80362 9.23517 6.65224C9.60062 6.50087 10.0028 6.46126 10.3907 6.53843C10.7787 6.6156 11.135 6.80608 11.4148 7.08579C11.6945 7.36549 11.8849 7.72186 11.9621 8.10982C12.0393 8.49778 11.9997 8.89991 11.8483 9.26537C11.6969 9.63082 11.4406 9.94318 11.1117 10.1629C10.7828 10.3827 10.3961 10.5 10.0005 10.5C9.4701 10.5 8.9614 10.2893 8.58632 9.91421C8.21125 9.53914 8.00054 9.03043 8.00054 8.5ZM16.9105 14.5C16.0171 12.9718 14.6419 11.783 13.0005 11.12C13.5097 10.5427 13.8415 9.83066 13.956 9.06944C14.0705 8.30822 13.963 7.53011 13.6463 6.8285C13.3296 6.12688 12.8171 5.53156 12.1704 5.11397C11.5238 4.69637 10.7703 4.47425 10.0005 4.47425C9.23075 4.47425 8.47731 4.69637 7.83063 5.11397C7.18395 5.53156 6.67151 6.12688 6.35479 6.8285C6.03807 7.53011 5.93052 8.30822 6.04507 9.06944C6.15961 9.83066 6.49137 10.5427 7.00054 11.12C5.35914 11.783 3.98401 12.9718 3.09054 14.5C2.37848 13.2871 2.00226 11.9065 2.00054 10.5C2.00054 8.37827 2.84339 6.34344 4.34368 4.84315C5.84397 3.34285 7.87881 2.5 10.0005 2.5C12.1223 2.5 14.1571 3.34285 15.6574 4.84315C17.1577 6.34344 18.0005 8.37827 18.0005 10.5C17.9988 11.9065 17.6226 13.2871 16.9105 14.5Z" fill="#888888"/>
<path d="M10.0005 0.5C8.06102 0.503685 6.16442 1.07131 4.54177 2.13374C2.91911 3.19617 1.64043 4.70754 0.861478 6.48377C0.0825237 8.26 -0.163087 10.2244 0.154563 12.1378C0.472214 14.0511 1.33941 15.8308 2.65054 17.26C3.58696 18.275 4.72348 19.0851 5.98847 19.6392C7.25347 20.1933 8.61952 20.4793 10.0005 20.4793C11.3816 20.4793 12.7476 20.1933 14.0126 19.6392C15.2776 19.0851 16.4141 18.275 17.3505 17.26C18.6617 15.8308 19.5289 14.0511 19.8465 12.1378C20.1642 10.2244 19.9186 8.26 19.1396 6.48377C18.3606 4.70754 17.082 3.19617 15.4593 2.13374C13.8367 1.07131 11.9401 0.503685 10.0005 0.5ZM10.0005 18.5C7.929 18.4969 5.93945 17.6903 4.45054 16.25C4.90258 15.1495 5.67157 14.2083 6.65979 13.5459C7.64801 12.8835 8.81085 12.5298 10.0005 12.5298C11.1902 12.5298 12.3531 12.8835 13.3413 13.5459C14.3295 14.2083 15.0985 15.1495 15.5505 16.25C14.0616 17.6903 12.0721 18.4969 10.0005 18.5ZM8.00054 8.5C8.00054 8.10444 8.11784 7.71776 8.3376 7.38886C8.55736 7.05996 8.86972 6.80362 9.23517 6.65224C9.60062 6.50087 10.0028 6.46126 10.3907 6.53843C10.7787 6.6156 11.135 6.80608 11.4148 7.08579C11.6945 7.36549 11.8849 7.72186 11.9621 8.10982C12.0393 8.49778 11.9997 8.89991 11.8483 9.26537C11.6969 9.63082 11.4406 9.94318 11.1117 10.1629C10.7828 10.3827 10.3961 10.5 10.0005 10.5C9.4701 10.5 8.9614 10.2893 8.58632 9.91421C8.21125 9.53914 8.00054 9.03043 8.00054 8.5ZM16.9105 14.5C16.0171 12.9718 14.6419 11.783 13.0005 11.12C13.5097 10.5427 13.8415 9.83066 13.956 9.06944C14.0705 8.30822 13.963 7.53011 13.6463 6.8285C13.3296 6.12688 12.8171 5.53156 12.1704 5.11397C11.5238 4.69637 10.7703 4.47425 10.0005 4.47425C9.23075 4.47425 8.47731 4.69637 7.83063 5.11397C7.18395 5.53156 6.67151 6.12688 6.35479 6.8285C6.03807 7.53011 5.93052 8.30822 6.04507 9.06944C6.15961 9.83066 6.49137 10.5427 7.00054 11.12C5.35914 11.783 3.98401 12.9718 3.09054 14.5C2.37848 13.2871 2.00226 11.9065 2.00054 10.5C2.00054 8.37827 2.84339 6.34344 4.34368 4.84315C5.84397 3.34285 7.87881 2.5 10.0005 2.5C12.1223 2.5 14.1571 3.34285 15.6574 4.84315C17.1577 6.34344 18.0005 8.37827 18.0005 10.5C17.9988 11.9065 17.6226 13.2871 16.9105 14.5Z" fill="black" fill-opacity="0.2"/>
</svg>
