<svg width="16" height="21" viewBox="0 0 16 21" fill="none" xmlns="http://www.w3.org/2000/svg">
<path d="M15 5.5H12V4.5C12 3.43913 11.5786 2.42172 10.8284 1.67157C10.0783 0.921427 9.06087 0.5 8 0.5C6.93913 0.5 5.92172 0.921427 5.17157 1.67157C4.42143 2.42172 4 3.43913 4 4.5V5.5H1C0.734784 5.5 0.48043 5.60536 0.292893 5.79289C0.105357 5.98043 0 6.23478 0 6.5V17.5C0 18.2956 0.316071 19.0587 0.87868 19.6213C1.44129 20.1839 2.20435 20.5 3 20.5H13C13.7956 20.5 14.5587 20.1839 15.1213 19.6213C15.6839 19.0587 16 18.2956 16 17.5V6.5C16 6.23478 15.8946 5.98043 15.7071 5.79289C15.5196 5.60536 15.2652 5.5 15 5.5ZM6 4.5C6 3.96957 6.21071 3.46086 6.58579 3.08579C6.96086 2.71071 7.46957 2.5 8 2.5C8.53043 2.5 9.03914 2.71071 9.41421 3.08579C9.78929 3.46086 10 3.96957 10 4.5V5.5H6V4.5ZM14 17.5C14 17.7652 13.8946 18.0196 13.7071 18.2071C13.5196 18.3946 13.2652 18.5 13 18.5H3C2.73478 18.5 2.48043 18.3946 2.29289 18.2071C2.10536 18.0196 2 17.7652 2 17.5V7.5H4V8.5C4 8.76522 4.10536 9.01957 4.29289 9.20711C4.48043 9.39464 4.73478 9.5 5 9.5C5.26522 9.5 5.51957 9.39464 5.70711 9.20711C5.89464 9.01957 6 8.76522 6 8.5V7.5H10V8.5C10 8.76522 10.1054 9.01957 10.2929 9.20711C10.4804 9.39464 10.7348 9.5 11 9.5C11.2652 9.5 11.5196 9.39464 11.7071 9.20711C11.8946 9.01957 12 8.76522 12 8.5V7.5H14V17.5Z" fill="#888888"/>
<path d="M15 5.5H12V4.5C12 3.43913 11.5786 2.42172 10.8284 1.67157C10.0783 0.921427 9.06087 0.5 8 0.5C6.93913 0.5 5.92172 0.921427 5.17157 1.67157C4.42143 2.42172 4 3.43913 4 4.5V5.5H1C0.734784 5.5 0.48043 5.60536 0.292893 5.79289C0.105357 5.98043 0 6.23478 0 6.5V17.5C0 18.2956 0.316071 19.0587 0.87868 19.6213C1.44129 20.1839 2.20435 20.5 3 20.5H13C13.7956 20.5 14.5587 20.1839 15.1213 19.6213C15.6839 19.0587 16 18.2956 16 17.5V6.5C16 6.23478 15.8946 5.98043 15.7071 5.79289C15.5196 5.60536 15.2652 5.5 15 5.5ZM6 4.5C6 3.96957 6.21071 3.46086 6.58579 3.08579C6.96086 2.71071 7.46957 2.5 8 2.5C8.53043 2.5 9.03914 2.71071 9.41421 3.08579C9.78929 3.46086 10 3.96957 10 4.5V5.5H6V4.5ZM14 17.5C14 17.7652 13.8946 18.0196 13.7071 18.2071C13.5196 18.3946 13.2652 18.5 13 18.5H3C2.73478 18.5 2.48043 18.3946 2.29289 18.2071C2.10536 18.0196 2 17.7652 2 17.5V7.5H4V8.5C4 8.76522 4.10536 9.01957 4.29289 9.20711C4.48043 9.39464 4.73478 9.5 5 9.5C5.26522 9.5 5.51957 9.39464 5.70711 9.20711C5.89464 9.01957 6 8.76522 6 8.5V7.5H10V8.5C10 8.76522 10.1054 9.01957 10.2929 9.20711C10.4804 9.39464 10.7348 9.5 11 9.5C11.2652 9.5 11.5196 9.39464 11.7071 9.20711C11.8946 9.01957 12 8.76522 12 8.5V7.5H14V17.5Z" fill="black" fill-opacity="0.2"/>
</svg>
