<svg width="233" height="41" viewBox="0 0 233 41" fill="none" xmlns="http://www.w3.org/2000/svg">
<path d="M2.69141 12.5311C4.35294 12.5311 6.01449 12.5311 7.67603 12.5311C7.89895 12.513 8.12231 12.5601 8.31897 12.6666C8.51562 12.7732 8.6771 12.9345 8.78372 13.1312C10.9991 16.4542 13.2453 19.7465 15.4914 23.0542C15.6094 23.2066 15.7379 23.3505 15.876 23.485V12.6081H21.5529V32.3311C19.7376 32.3311 17.9376 32.3311 16.1376 32.3311C15.953 32.3311 15.7222 32.1004 15.5991 31.9312C13.9222 29.485 12.276 27.0234 10.5991 24.5619C9.92217 23.5619 9.21448 22.5773 8.42986 21.485V32.3773H2.69141V12.5311Z" fill="#0A0A0A"/>
<path d="M67.3075 12.5308L66.9998 12.9C64.8921 15.0539 62.7844 17.2231 60.6614 19.3615C60.56 19.4336 60.4751 19.5263 60.4123 19.6337C60.3495 19.741 60.3102 19.8605 60.2971 19.9842C60.284 20.1078 60.2974 20.2329 60.3363 20.351C60.3753 20.4691 60.4389 20.5776 60.5229 20.6692C62.4768 23.8539 64.3845 27.0539 66.3075 30.2385C66.7075 30.9 67.0921 31.5615 67.5383 32.2846H66.9537C64.8768 32.2846 62.7998 32.2846 60.7229 32.2846C60.5256 32.306 60.3269 32.2599 60.1592 32.1537C59.9915 32.0475 59.8648 31.8876 59.7998 31.7C58.5691 29.2539 57.3075 26.8231 56.0921 24.4539C55.1998 25.2846 54.2921 26.1462 53.3537 26.977C53.1128 27.2264 52.9343 27.5292 52.8327 27.8607C52.7311 28.1922 52.7093 28.5431 52.7691 28.8846C52.7691 29.9769 52.7691 31.0846 52.7691 32.2231H46.6152V12.5308H52.7691V19.9462C53.7537 18.8385 54.5845 17.9154 55.3845 16.977C56.4614 15.7308 57.5845 14.5308 58.5537 13.2077C58.7558 12.9346 59.0294 12.7227 59.3443 12.5951C59.6592 12.4675 60.0031 12.4293 60.3383 12.4846C62.3998 12.4846 64.446 12.4846 66.4922 12.4846L67.3075 12.5308Z" fill="#0A0A0A"/>
<path d="M89.4932 32.3156V12.5771H90.1239C93.2008 12.5771 96.3855 12.5771 99.5085 12.5771C100.948 12.5878 102.361 12.9637 103.616 13.6695C104.513 14.2077 105.291 14.9233 105.902 15.7724C106.513 16.6215 106.945 17.5864 107.17 18.6079C107.824 21.1616 107.824 23.8389 107.17 26.3926C106.802 27.832 106.025 29.1341 104.933 30.1416C103.841 31.149 102.481 31.8186 101.016 32.0695C98.7038 32.3409 96.3734 32.4283 94.047 32.331C92.5086 32.331 90.9701 32.331 89.4316 32.331L89.4932 32.3156ZM95.647 17.1002V27.7772C96.4874 27.8234 97.3297 27.8234 98.1701 27.7772C98.9076 27.8265 99.6362 27.593 100.208 27.1244C100.779 26.6557 101.151 25.987 101.247 25.2541C101.601 23.5492 101.601 21.7898 101.247 20.0848C101.208 19.6083 101.058 19.1475 100.81 18.7389C100.561 18.3303 100.221 17.9852 99.8163 17.731C98.5148 17.1287 97.067 16.915 95.647 17.1156V17.1002Z" fill="#0A0A0A"/>
<path d="M69.5684 32.2695V12.5771H85.7684V16.7772H75.753V19.9771H84.9837V23.9464H75.753V27.7772H86.0761V32.2695H69.5684Z" fill="#0A0A0A"/>
<path d="M229.031 18.0696L225.508 18.2542C225.015 18.2542 224.508 18.3465 223.969 18.408C223.431 18.4696 223.231 18.3157 223.062 17.7773C222.891 17.3616 222.631 16.9883 222.301 16.6837C221.97 16.3792 221.577 16.1507 221.149 16.0143C220.721 15.8779 220.268 15.837 219.822 15.8944C219.377 15.9518 218.949 16.1061 218.569 16.3465C218.372 16.4526 218.209 16.614 218.102 16.811C217.994 17.008 217.947 17.232 217.964 17.4557C217.982 17.6794 218.065 17.893 218.203 18.0703C218.34 18.2477 218.526 18.3811 218.739 18.4542C220.062 18.9311 221.446 19.1927 222.8 19.5773C224.664 19.9216 226.41 20.7313 227.877 21.9311C228.631 22.6006 229.178 23.4727 229.45 24.4437C229.723 25.4147 229.711 26.4437 229.415 27.408C229.12 28.6204 228.476 29.7197 227.563 30.5701C226.65 31.4204 225.507 31.9845 224.277 32.1926C221.258 32.9916 218.06 32.7643 215.185 31.5465C213.869 30.8925 212.856 29.7578 212.354 28.3773C212.047 27.5355 211.806 26.6714 211.631 25.7926L217.415 25.4388C217.725 26.2352 218.084 27.0111 218.492 27.7619C219.385 29.1772 222.539 29.3003 223.292 27.5465C223.399 27.3374 223.463 27.1094 223.481 26.8756C223.499 26.6418 223.47 26.4068 223.397 26.1839C223.325 25.961 223.209 25.7547 223.056 25.5767C222.903 25.3987 222.717 25.2525 222.508 25.1465C221.292 24.6696 220.015 24.3465 218.769 23.9773C216.912 23.5699 215.194 22.6842 213.785 21.4081C213.047 20.6119 212.589 19.5966 212.48 18.5164C212.372 17.4363 212.619 16.3502 213.185 15.4234C213.765 14.5053 214.563 13.7444 215.508 13.2077C216.452 12.6711 217.514 12.3753 218.6 12.3465C219.622 12.2333 220.649 12.1871 221.677 12.208C223.658 12.1418 225.598 12.7795 227.154 14.0081C228.005 14.8451 228.589 15.916 228.831 17.085C228.908 17.3773 228.939 17.6849 229.015 18.0542L229.031 18.0696Z" fill="#0A0A0A"/>
<path d="M29.4312 32.2999H23.2773C23.585 31.4076 23.862 30.5461 24.1697 29.6999C25.262 26.7461 26.385 23.8076 27.4773 20.8537L30.3235 13.1614C30.3678 12.9645 30.4835 12.791 30.6483 12.6745C30.8132 12.558 31.0154 12.5067 31.2158 12.5307C33.0158 12.5307 34.8158 12.5307 36.6312 12.5307C36.8369 12.4945 37.0487 12.5402 37.2212 12.658C37.3937 12.7759 37.5132 12.9566 37.5543 13.1614C39.585 18.6845 41.6466 24.2076 43.7081 29.7307C44.0158 30.5615 44.2927 31.423 44.6004 32.3153H38.2312C37.9697 31.4384 37.6619 30.5615 37.4466 29.6692C37.3389 29.2384 37.1696 29.0845 36.7235 29.0845C34.785 29.0845 32.862 29.0845 30.9389 29.0845C30.7737 29.0626 30.6066 29.1069 30.474 29.2078C30.3414 29.3087 30.2541 29.458 30.2312 29.623C30.0004 30.5153 29.7081 31.3922 29.4312 32.2999ZM35.9697 24.8076L33.8312 17.7153C33.1081 20.1153 32.4158 22.4384 31.6927 24.8076H35.9697Z" fill="#0A0A0A"/>
<path d="M209.662 18.3617L204.293 19.5617C203.96 18.5489 203.271 17.691 202.355 17.1463C201.849 16.9091 201.297 16.7859 200.738 16.7854C200.18 16.7849 199.628 16.9071 199.121 17.1434C198.615 17.3796 198.167 17.7242 197.809 18.1527C197.45 18.5812 197.19 19.0832 197.047 19.6232C196.6 21.51 196.6 23.4749 197.047 25.3617C197.165 26.0638 197.51 26.7078 198.03 27.1943C198.55 27.6808 199.215 27.9828 199.924 28.054C200.67 28.2209 201.451 28.1382 202.146 27.8186C202.84 27.499 203.411 26.9601 203.77 26.2847C204.078 25.6386 204.324 24.9617 204.601 24.3001C206.139 24.777 207.816 25.2386 209.432 25.7463C209.505 25.8043 209.563 25.8796 209.601 25.9654C209.639 26.0513 209.654 26.1451 209.647 26.2386C209.357 27.7784 208.603 29.1929 207.486 30.2926C206.37 31.3924 204.945 32.125 203.401 32.3924C200.574 33.0513 197.607 32.7144 195.001 31.4386C193.734 30.7115 192.696 29.646 192.001 28.3617C190.702 25.982 190.236 23.2365 190.678 20.5617C190.839 18.7965 191.472 17.107 192.508 15.6694C193.684 14.0901 195.397 12.9957 197.324 12.5924C199.745 11.988 202.287 12.0733 204.662 12.8386C205.731 13.2306 206.699 13.8548 207.497 14.6662C208.295 15.4776 208.903 16.456 209.278 17.5309C209.385 17.777 209.462 18.0232 209.585 18.3463L209.662 18.3617Z" fill="#0A0A0A"/>
<path d="M140.97 12.531C144.678 12.531 148.339 12.531 152.001 12.531C152.734 12.5039 153.466 12.6263 154.151 12.8908C154.836 13.1553 155.46 13.5563 155.985 14.0695C156.629 14.8029 157.102 15.6698 157.37 16.6079C157.669 17.5768 157.744 18.6009 157.59 19.603C157.435 20.6051 157.055 21.559 156.478 22.3926C156.002 23.0425 155.388 23.5794 154.681 23.965C153.973 24.3506 153.19 24.5754 152.385 24.6234C150.662 24.8234 148.893 24.808 147.078 24.8849V32.2387H140.924V12.531H140.97ZM147.124 20.9618C148.108 20.8849 149.032 20.8695 149.924 20.7311C150.374 20.6127 150.773 20.3485 151.057 19.9797C151.342 19.6109 151.496 19.1583 151.496 18.6926C151.496 18.2269 151.342 17.7743 151.057 17.4055C150.773 17.0367 150.374 16.7725 149.924 16.6541C149.001 16.5157 148.062 16.5003 147.093 16.4387V20.9618H147.124Z" fill="#0A0A0A"/>
<path d="M177.954 12.5918V17.3456H171.923V32.2687H165.769V17.3918H159.615V12.5918H177.954Z" fill="#0A0A0A"/>
<path d="M186.907 12.5918V32.2841H180.83V12.5918H186.907Z" fill="#0A0A0A"/>
<path d="M125.415 21.4538C126.322 21.4538 127.107 21.4538 127.892 21.4538C128.145 21.4778 128.384 21.5861 128.569 21.7615C129.107 22.2692 129.615 22.7923 130.107 23.3C130.599 23.8077 130.753 23.7154 131.138 23.3C131.753 22.6692 132.461 22.1308 133.015 21.4538C133.334 21.0464 133.771 20.7457 134.265 20.5918C134.76 20.438 135.289 20.4381 135.784 20.5923C135.755 22.663 135.187 24.6905 134.137 26.4755C133.087 28.2606 131.591 29.7419 129.796 30.7739C128 31.8058 125.967 32.3531 123.896 32.3617C121.825 32.3703 119.788 31.8401 117.984 30.8231C116.124 29.8281 114.568 28.3465 113.484 26.5364C112.401 24.7264 111.829 22.6559 111.83 20.5462H113.553L113.03 21.3307H113.922C116.138 21.3307 118.369 21.3307 120.584 21.3307C121.076 21.3307 121.276 21.4538 121.415 21.9769C121.999 24.4846 122.645 26.9769 123.276 29.4692C123.492 30.3154 123.676 30.3769 124.307 29.7615C124.938 29.1461 125.692 28.3769 126.415 27.7307C126.585 27.5987 126.708 27.4143 126.763 27.2058C126.819 26.9973 126.805 26.7764 126.722 26.5769C126.261 24.8692 125.83 23.1461 125.369 21.3461L125.415 21.4538Z" fill="#0A0A0A"/>
<path d="M113.908 20.485L120.231 14.4081L123.662 11.1158C124.123 10.6389 124.477 10.6696 124.939 11.1158C126.816 12.9619 126.816 12.9466 126.277 15.5004C125.954 17.0389 125.631 18.5773 125.293 20.1158C125.268 20.2219 125.232 20.325 125.185 20.4235H121.323C121.493 19.6081 121.646 18.885 121.846 17.8542C121.016 18.6389 120.308 19.3927 119.57 19.9927C119.277 20.2577 118.902 20.415 118.508 20.4389C117.046 20.4389 115.585 20.4389 113.893 20.4389L113.908 20.485Z" fill="#0A0A0A"/>
<path d="M127.953 20.4387C128.753 19.5618 129.615 18.5772 130.507 17.6387C130.609 17.5861 130.723 17.5586 130.838 17.5586C130.953 17.5586 131.066 17.5861 131.169 17.6387C132.061 18.5156 132.922 19.4387 133.876 20.4233L127.953 20.4387Z" fill="#0A0A0A"/>
<path d="M123.893 34.3466C121.155 34.3466 118.478 33.5346 116.201 32.0131C113.924 30.4917 112.149 28.3292 111.101 25.7991C110.053 23.2691 109.779 20.4851 110.313 17.7992C110.847 15.1133 112.166 12.6462 114.102 10.7097C116.039 8.77333 118.506 7.45461 121.192 6.92036C123.878 6.3861 126.662 6.66029 129.192 7.70827C131.722 8.75625 133.884 10.531 135.406 12.8079C136.927 15.0849 137.739 17.762 137.739 20.5005C137.739 24.1727 136.28 27.6945 133.684 30.2912C131.087 32.8878 127.565 34.3466 123.893 34.3466ZM123.893 7.80818C121.383 7.80818 118.929 8.55253 116.842 9.94718C114.754 11.3418 113.128 13.3241 112.167 15.6433C111.206 17.9625 110.955 20.5145 111.445 22.9766C111.934 25.4387 113.143 27.7002 114.918 29.4753C116.693 31.2503 118.955 32.4592 121.417 32.9489C123.879 33.4386 126.431 33.1873 128.75 32.2266C131.069 31.266 133.052 29.6392 134.446 27.5519C135.841 25.4647 136.585 23.0108 136.585 20.5005C136.581 17.1355 135.243 13.9095 132.863 11.5302C130.484 9.15077 127.258 7.81225 123.893 7.80818V7.80818Z" fill="#0A0A0A"/>
</svg>
