<svg width="35" height="36" viewBox="0 0 35 36" fill="none" xmlns="http://www.w3.org/2000/svg">
<rect width="35" height="35.0001" transform="translate(0 0.5)" fill="white"/>
<path fill-rule="evenodd" clip-rule="evenodd" d="M7.77754 32.5508C10.6554 34.4737 14.0388 35.5001 17.5 35.5001C22.1413 35.5001 26.5925 33.6563 29.8744 30.3744C33.1562 27.0925 35 22.6413 35 18.0001C35 14.5389 33.9736 11.1554 32.0507 8.27753C30.1278 5.39967 27.3947 3.15664 24.197 1.83211C20.9993 0.507574 17.4806 0.161027 14.0859 0.836269C10.6913 1.51151 7.57306 3.17822 5.12564 5.62564C2.67822 8.07306 1.01151 11.1913 0.33627 14.5859C-0.338972 17.9806 0.00757546 21.4993 1.33211 24.697C2.65664 27.8947 4.89967 30.6278 7.77754 32.5508ZM8.5877 4.66184C11.2257 2.89916 14.3273 1.95838 17.5 1.95838C21.7529 1.96353 25.8302 3.65526 28.8375 6.66254C31.8448 9.66983 33.5365 13.7471 33.5417 18.0001C33.5417 21.1728 32.6008 24.2743 30.8382 26.9123C29.0755 29.5503 26.5701 31.6064 23.6389 32.8206C20.7076 34.0347 17.4822 34.3524 14.3704 33.7335C11.2586 33.1145 8.40032 31.5867 6.15685 29.3432C3.91338 27.0997 2.38551 24.2414 1.76654 21.1296C1.14756 18.0178 1.46526 14.7924 2.67942 11.8611C3.89357 8.92989 5.94966 6.42453 8.5877 4.66184ZM4.94127 17.9223L4.88058 17.9806L4.86111 17.9223H4.94127ZM10.6945 17.9223H4.94127L12.8722 10.3L17.2084 6.13893C17.7917 5.53615 18.2389 5.57504 18.8222 6.13893L18.8573 6.17346C20.0249 7.32189 20.6084 7.89573 20.8155 8.58298C21.0223 9.26935 20.8537 10.0688 20.5168 11.6668L20.5139 11.6806L20.5118 11.6903C20.1042 13.6315 19.6965 15.5727 19.2695 17.5139C19.238 17.648 19.1924 17.7784 19.1333 17.9028H14.2528C14.2907 17.7199 14.3281 17.5406 14.3653 17.3622L14.3655 17.361C14.5377 16.5348 14.7061 15.7266 14.9139 14.6556C14.5695 14.9809 14.2418 15.302 13.924 15.6134C13.2729 16.2514 12.6633 16.8488 12.0361 17.3584C11.6659 17.6933 11.1927 17.8922 10.6945 17.9223ZM22.5554 19.2056H19.4248L19.3665 19.0695C19.5082 19.6222 19.6476 20.1692 19.7859 20.7115L19.7865 20.714C20.2171 22.4031 20.6362 24.0474 21.0776 25.6806C21.1815 25.9327 21.1997 26.212 21.1295 26.4755C21.0592 26.7389 20.9044 26.972 20.6888 27.1389C20.0102 27.7453 19.3103 28.4374 18.6685 29.0719L18.6684 29.072L18.6681 29.0723L18.6664 29.0739C18.4445 29.2934 18.2295 29.5059 18.0248 29.7056C17.2276 30.4834 16.9943 30.4056 16.7221 29.3362C16.5705 28.7371 16.4181 28.1381 16.2658 27.5389L16.2657 27.5386L16.2657 27.5384L16.2656 27.5383L16.2656 27.5382C15.6169 24.9869 14.9676 22.4332 14.3693 19.8667C14.1943 19.2056 13.9415 19.05 13.3193 19.05H4.89981H3.77205L4.43316 18.0584H2.25539C2.25374 20.7249 2.97646 23.3418 4.34634 25.6295C5.71623 27.9172 7.68182 29.7898 10.0332 31.0473C12.3132 32.3327 14.8884 33.0028 17.5058 32.9919C20.1232 32.981 22.6928 32.2894 24.962 30.9851C27.2313 29.6808 29.1223 27.8086 30.4493 25.5525C31.7762 23.2964 32.4934 20.7339 32.5304 18.1167C31.9054 17.9219 31.2359 17.9217 30.6108 18.1162C29.9857 18.3106 29.4345 18.6906 29.0304 19.2056C28.6018 19.7295 28.1002 20.1877 27.5972 20.6473L27.5972 20.6474C27.2787 20.9383 26.9597 21.2299 26.6582 21.5389C26.172 22.0639 25.9776 22.1806 25.3554 21.5389C24.7332 20.8973 24.0915 20.2362 23.411 19.5945C23.1773 19.3728 22.8761 19.2359 22.5554 19.2056ZM23.6525 16.7939L23.6525 16.7938C24.3632 16.0033 25.1033 15.1802 25.8609 14.3834C25.9902 14.3169 26.1335 14.2822 26.279 14.2822C26.4244 14.2822 26.5677 14.3169 26.697 14.3834C27.4777 15.1506 28.2397 15.9458 29.0346 16.7753L29.0348 16.7755C29.3883 17.1443 29.7482 17.5199 30.1192 17.9029L22.6331 17.9223C22.965 17.5586 23.3052 17.1801 23.6525 16.7939Z" fill="#0A0A0A"/>
</svg>
