<svg width="21" height="21" viewBox="0 0 21 21" fill="none" xmlns="http://www.w3.org/2000/svg">
<path d="M20.7094 18.7904L16.9994 15.1104C18.4395 13.3148 19.1369 11.0357 18.9482 8.74169C18.7595 6.44769 17.6991 4.31318 15.9849 2.77704C14.2708 1.2409 12.0332 0.419903 9.73234 0.482863C7.43145 0.545824 5.24214 1.48795 3.61456 3.11553C1.98698 4.74311 1.04485 6.93243 0.981887 9.23332C0.918926 11.5342 1.73992 13.7718 3.27606 15.4859C4.8122 17.2001 6.94672 18.2605 9.24072 18.4492C11.5347 18.6379 13.8138 17.9405 15.6094 16.5004L19.2894 20.1804C19.3824 20.2741 19.493 20.3485 19.6148 20.3993C19.7367 20.4501 19.8674 20.4762 19.9994 20.4762C20.1314 20.4762 20.2621 20.4501 20.384 20.3993C20.5059 20.3485 20.6165 20.2741 20.7094 20.1804C20.8897 19.9939 20.9904 19.7447 20.9904 19.4854C20.9904 19.2261 20.8897 18.9769 20.7094 18.7904ZM9.99942 16.5004C8.61495 16.5004 7.26157 16.0899 6.11042 15.3207C4.95928 14.5515 4.06207 13.4583 3.53226 12.1792C3.00245 10.9001 2.86382 9.49263 3.13392 8.13476C3.40402 6.77689 4.0707 5.52961 5.04967 4.55065C6.02864 3.57168 7.27592 2.90499 8.63378 2.6349C9.99165 2.3648 11.3991 2.50342 12.6782 3.03324C13.9573 3.56305 15.0505 4.46026 15.8197 5.6114C16.5889 6.76255 16.9994 8.11592 16.9994 9.50039C16.9994 11.3569 16.2619 13.1374 14.9492 14.4501C13.6364 15.7629 11.8559 16.5004 9.99942 16.5004Z" fill="#888888"/>
<path d="M20.7094 18.7904L16.9994 15.1104C18.4395 13.3148 19.1369 11.0357 18.9482 8.74169C18.7595 6.44769 17.6991 4.31318 15.9849 2.77704C14.2708 1.2409 12.0332 0.419903 9.73234 0.482863C7.43145 0.545824 5.24214 1.48795 3.61456 3.11553C1.98698 4.74311 1.04485 6.93243 0.981887 9.23332C0.918926 11.5342 1.73992 13.7718 3.27606 15.4859C4.8122 17.2001 6.94672 18.2605 9.24072 18.4492C11.5347 18.6379 13.8138 17.9405 15.6094 16.5004L19.2894 20.1804C19.3824 20.2741 19.493 20.3485 19.6148 20.3993C19.7367 20.4501 19.8674 20.4762 19.9994 20.4762C20.1314 20.4762 20.2621 20.4501 20.384 20.3993C20.5059 20.3485 20.6165 20.2741 20.7094 20.1804C20.8897 19.9939 20.9904 19.7447 20.9904 19.4854C20.9904 19.2261 20.8897 18.9769 20.7094 18.7904ZM9.99942 16.5004C8.61495 16.5004 7.26157 16.0899 6.11042 15.3207C4.95928 14.5515 4.06207 13.4583 3.53226 12.1792C3.00245 10.9001 2.86382 9.49263 3.13392 8.13476C3.40402 6.77689 4.0707 5.52961 5.04967 4.55065C6.02864 3.57168 7.27592 2.90499 8.63378 2.6349C9.99165 2.3648 11.3991 2.50342 12.6782 3.03324C13.9573 3.56305 15.0505 4.46026 15.8197 5.6114C16.5889 6.76255 16.9994 8.11592 16.9994 9.50039C16.9994 11.3569 16.2619 13.1374 14.9492 14.4501C13.6364 15.7629 11.8559 16.5004 9.99942 16.5004Z" fill="black" fill-opacity="0.2"/>
</svg>
