<svg width="67" height="65" viewBox="0 0 67 65" fill="none" xmlns="http://www.w3.org/2000/svg">
<path fill-rule="evenodd" clip-rule="evenodd" d="M56.5586 8.71241H3.5847V37.4535H20.6412V41.0733H13.3066V55.5527H9.63935V41.0733H3.5847V41.0737H8.24928e-05V45.2833H3.5847V60.7082H56.5586V8.71241ZM0 5.02766V64.393H60.1433V5.02766H0ZM24.2759 22.1676H13.274V14.9279H9.60675V33.0271H13.274V25.7874H24.2759V33.0271H24.283L24.3051 38.5479H24.3084V55.5527H42.6448V44.6931H27.9757V37.4535H27.9293V33.0271H27.9431V14.9279H24.2759V22.1676ZM35.296 22.1495V18.602H46.2612V22.1495H35.296ZM35.296 33.0271V25.9322H46.2612V33.0271H49.9468V14.9279H31.6104V33.0271H35.296ZM49.9794 37.4535H46.3121V55.5527H49.9794V37.4535ZM27.9757 51.9328V48.313H38.9776V51.9328H27.9757Z" fill="#0A4175"/>
<path d="M60.1433 0.285526V0H62.7935V0.285526H61.6353V3.4807H61.3015V0.285526H60.1433Z" fill="#0A4175"/>
<path d="M63.5449 0H63.9303L65.2564 3.03202H65.2885L66.6145 0H67V3.4807H66.6859V0.671327H66.6573L65.4241 3.4807H65.1207L63.8875 0.671327H63.859V3.4807H63.5449V0Z" fill="#0A4175"/>
</svg>
