<svg width="53" height="51" viewBox="0 0 53 51" fill="none" xmlns="http://www.w3.org/2000/svg">
<path fill-rule="evenodd" clip-rule="evenodd" d="M44.7404 6.80644H2.83566V29.2604H16.3281V32.0884H10.5261V43.4004H7.62515V32.0884H2.83566V32.0887H6.53267e-05V35.3774H2.83566V47.4282H44.7404V6.80644ZM0 3.92773V50.3069H47.576V3.92773H0ZM19.2033 17.3183H10.5003V11.6623H7.59937V25.8023H10.5003V20.1463H19.2033V25.8023H19.209L19.2264 30.1154H19.2291V43.4004H33.734V34.9164H22.1301V29.2604H22.0933V25.8023H22.1043V11.6623H19.2033V17.3183ZM27.9207 17.3041V14.5327H36.5947V17.3041H27.9207ZM27.9207 25.8023V20.2594H36.5947V25.8023H39.5101V11.6623H25.0052V25.8023H27.9207ZM39.5359 29.2604H36.6349V43.4004H39.5359V29.2604ZM22.1301 40.5724V37.7444H30.833V40.5724H22.1301Z" fill="#E5E5E5"/>
<path d="M47.576 0.223067V0H49.6725V0.223067H48.7563V2.7193H48.4923V0.223067H47.576Z" fill="#E5E5E5"/>
<path d="M50.2669 0H50.5718L51.6207 2.36876H51.6461L52.6951 0H53V2.7193H52.7516V0.524474H52.729L51.7534 2.7193H51.5134L50.5379 0.524474H50.5153V2.7193H50.2669V0Z" fill="#E5E5E5"/>
</svg>
