<svg width="192" height="31" viewBox="0 0 192 31" fill="none" xmlns="http://www.w3.org/2000/svg">
<path d="M2.22461 9.05827C3.59785 9.05827 4.97111 9.05827 6.34435 9.05827C6.52859 9.04464 6.7132 9.08009 6.87573 9.16029C7.03827 9.2405 7.17173 9.36202 7.25985 9.51005C9.09084 12.0121 10.9473 14.491 12.8037 16.9815C12.9012 17.0963 13.0074 17.2047 13.1216 17.3059V9.11621H17.8135V23.9665C16.3131 23.9665 14.8254 23.9665 13.3377 23.9665C13.1851 23.9665 12.9944 23.7928 12.8927 23.6653C11.5067 21.8235 10.1462 19.9701 8.76024 18.1167C8.20077 17.3638 7.61586 16.6224 6.96739 15.8V24.0012H2.22461V9.05827Z" fill="white"/>
<path d="M55.6293 9.05844L55.375 9.33648C53.633 10.9582 51.891 12.5915 50.1363 14.2016C50.0525 14.2558 49.9823 14.3257 49.9304 14.4065C49.8785 14.4873 49.8461 14.5773 49.8353 14.6704C49.8245 14.7635 49.8355 14.8577 49.8677 14.9466C49.8999 15.0356 49.9524 15.1172 50.0219 15.1862C51.6367 17.5841 53.2134 19.9935 54.8028 22.3913C55.1334 22.8894 55.4513 23.3875 55.82 23.9319H55.3369C53.6203 23.9319 51.9038 23.9319 50.1872 23.9319C50.0241 23.948 49.8599 23.9133 49.7213 23.8333C49.5827 23.7534 49.478 23.633 49.4243 23.4918C48.4071 21.65 47.3644 19.8197 46.3599 18.0358C45.6224 18.6613 44.8722 19.31 44.0966 19.9356C43.8975 20.1234 43.75 20.3513 43.666 20.601C43.582 20.8506 43.564 21.1148 43.6134 21.3719C43.6134 22.1944 43.6134 23.0284 43.6134 23.8856H38.5273V9.05844H43.6134V14.6418C44.4272 13.8078 45.1138 13.1128 45.775 12.4062C46.6651 11.4679 47.5933 10.5643 48.3944 9.56813C48.5614 9.36253 48.7875 9.20293 49.0478 9.10688C49.308 9.01082 49.5923 8.98202 49.8693 9.0237C51.5732 9.0237 53.2643 9.0237 54.9554 9.0237L55.6293 9.05844Z" fill="white"/>
<path d="M73.9649 23.9552V9.09326H74.4862C77.0293 9.09326 79.6613 9.09326 82.2425 9.09326C83.4323 9.10131 84.6005 9.38432 85.6375 9.91573C86.3789 10.321 87.0218 10.8597 87.5268 11.4991C88.0318 12.1384 88.3884 12.8649 88.5747 13.6341C89.1151 15.5569 89.1151 17.5727 88.5747 19.4954C88.2706 20.5793 87.6285 21.5597 86.7259 22.3182C85.8233 23.0768 84.699 23.5809 83.4886 23.7698C81.5774 23.9742 79.6513 24.04 77.7286 23.9667C76.4571 23.9667 75.1856 23.9667 73.9141 23.9667L73.9649 23.9552ZM79.051 12.4989V20.538C79.7456 20.5728 80.4417 20.5728 81.1363 20.538C81.7458 20.5751 82.348 20.3993 82.8204 20.0465C83.2928 19.6936 83.5999 19.1901 83.6794 18.6383C83.9717 17.3546 83.9717 16.0298 83.6794 14.7461C83.647 14.3873 83.5232 14.0403 83.318 13.7327C83.1127 13.425 82.8316 13.1652 82.4968 12.9738C81.4212 12.5203 80.2246 12.3594 79.051 12.5105V12.4989Z" fill="white"/>
<path d="M57.498 23.9204V9.09326H70.8872V12.2556H62.6096V14.665H70.2387V17.6536H62.6096V20.538H71.1415V23.9204H57.498Z" fill="white"/>
<path d="M189.291 13.2284L186.379 13.3674C185.972 13.3674 185.553 13.4369 185.108 13.4832C184.663 13.5295 184.497 13.4137 184.358 13.0083C184.216 12.6953 184.002 12.4143 183.729 12.1849C183.456 11.9556 183.131 11.7835 182.777 11.6809C182.423 11.5782 182.049 11.5474 181.68 11.5906C181.312 11.6338 180.959 11.75 180.645 11.931C180.481 12.0108 180.347 12.1324 180.258 12.2807C180.169 12.4291 180.13 12.5977 180.145 12.7662C180.16 12.9346 180.228 13.0954 180.342 13.2289C180.455 13.3625 180.609 13.4629 180.785 13.518C181.878 13.8771 183.022 14.074 184.141 14.3636C185.682 14.6228 187.125 15.2325 188.337 16.1359C188.961 16.6399 189.412 17.2966 189.638 18.0277C189.863 18.7588 189.853 19.5336 189.609 20.2597C189.365 21.1726 188.833 22.0003 188.078 22.6405C187.323 23.2808 186.379 23.7055 185.362 23.8622C182.867 24.4638 180.224 24.2927 177.847 23.3757C176.76 22.8833 175.923 22.0289 175.508 20.9895C175.254 20.3556 175.055 19.705 174.91 19.0434L179.691 18.777C179.947 19.3766 180.244 19.9608 180.581 20.5261C181.319 21.5918 183.925 21.6845 184.548 20.3639C184.636 20.2065 184.689 20.0349 184.704 19.8588C184.719 19.6828 184.695 19.5058 184.635 19.338C184.575 19.1702 184.479 19.0148 184.353 18.8808C184.227 18.7467 184.073 18.6367 183.9 18.5569C182.895 18.1978 181.84 17.9545 180.81 17.6765C179.275 17.3698 177.855 16.7029 176.69 15.742C176.08 15.1426 175.702 14.3782 175.612 13.5648C175.523 12.7515 175.727 11.9338 176.194 11.236C176.674 10.5447 177.334 9.97175 178.114 9.5677C178.895 9.16365 179.773 8.94094 180.67 8.91923C181.514 8.834 182.364 8.79918 183.213 8.81498C184.85 8.76511 186.454 9.24529 187.74 10.1703C188.443 10.8005 188.926 11.6068 189.126 12.487C189.189 12.7071 189.215 12.9388 189.278 13.2168L189.291 13.2284Z" fill="white"/>
<path d="M24.3244 23.9435H19.2383C19.4926 23.2717 19.7215 22.623 19.9758 21.9859C20.8785 19.7618 21.8068 17.5493 22.7095 15.3252L25.0619 9.53337C25.0985 9.38509 25.1941 9.25445 25.3303 9.16671C25.4666 9.07898 25.6337 9.0404 25.7993 9.05844C27.287 9.05844 28.7747 9.05844 30.2751 9.05844C30.4451 9.03117 30.6202 9.06559 30.7627 9.15434C30.9053 9.24309 31.0041 9.37913 31.038 9.53337C32.7164 13.6919 34.4203 17.8505 36.1241 22.0091C36.3784 22.6346 36.6073 23.2833 36.8616 23.9551H31.5975C31.3813 23.2948 31.127 22.6346 30.949 21.9627C30.86 21.6384 30.7201 21.5225 30.3514 21.5225C28.7493 21.5225 27.1599 21.5225 25.5705 21.5225C25.434 21.506 25.2958 21.5394 25.1862 21.6154C25.0767 21.6913 25.0045 21.8037 24.9856 21.928C24.7948 22.5998 24.5532 23.2601 24.3244 23.9435ZM29.7283 18.3022L27.9609 12.9621C27.3633 14.7692 26.7911 16.5184 26.1935 18.3022H29.7283Z" fill="white"/>
<path d="M173.284 13.4486L168.846 14.3521C168.57 13.5896 168.001 12.9436 167.244 12.5335C166.826 12.3549 166.37 12.2621 165.908 12.2617C165.446 12.2614 164.99 12.3534 164.572 12.5313C164.153 12.7091 163.783 12.9686 163.487 13.2912C163.19 13.6139 162.975 13.9918 162.857 14.3984C162.488 15.8191 162.488 17.2985 162.857 18.7192C162.954 19.2478 163.24 19.7327 163.67 20.099C164.099 20.4653 164.649 20.6927 165.235 20.7463C165.852 20.872 166.497 20.8097 167.071 20.5691C167.645 20.3284 168.117 19.9227 168.414 19.4142C168.668 18.9277 168.871 18.418 169.1 17.9199C170.372 18.279 171.758 18.6265 173.093 19.0087C173.154 19.0524 173.202 19.1091 173.233 19.1738C173.264 19.2384 173.277 19.3091 173.271 19.3794C173.031 20.5388 172.408 21.6038 171.485 22.4319C170.563 23.2599 169.385 23.8115 168.108 24.0129C165.773 24.509 163.32 24.2553 161.166 23.2947C160.119 22.7473 159.261 21.945 158.686 20.978C157.613 19.1862 157.228 17.119 157.593 15.105C157.727 13.776 158.249 12.5039 159.106 11.4214C160.078 10.2324 161.493 9.4083 163.086 9.10468C165.087 8.64957 167.188 8.71377 169.151 9.29003C170.034 9.58516 170.834 10.0551 171.494 10.6661C172.154 11.277 172.656 12.0137 172.966 12.823C173.055 13.0084 173.118 13.1937 173.22 13.437L173.284 13.4486Z" fill="white"/>
<path d="M116.509 9.05844C119.573 9.05844 122.599 9.05844 125.626 9.05844C126.232 9.03804 126.837 9.1302 127.403 9.32933C127.969 9.52847 128.485 9.83042 128.919 10.2168C129.451 10.769 129.842 11.4218 130.063 12.1281C130.311 12.8576 130.373 13.6287 130.245 14.3832C130.117 15.1377 129.803 15.8559 129.326 16.4836C128.932 16.973 128.425 17.3772 127.841 17.6675C127.256 17.9579 126.608 18.1271 125.944 18.1633C124.519 18.3138 123.057 18.3022 121.557 18.3602V23.8972H116.471V9.05844H116.509ZM121.595 15.4063C122.409 15.3484 123.172 15.3368 123.909 15.2326C124.281 15.1434 124.611 14.9445 124.846 14.6668C125.081 14.3892 125.208 14.0484 125.208 13.6977C125.208 13.3471 125.081 13.0063 124.846 12.7286C124.611 12.4509 124.281 12.252 123.909 12.1629C123.146 12.0586 122.371 12.047 121.569 12.0007V15.4063H121.595Z" fill="white"/>
<path d="M147.076 9.10474V12.6841H142.092V23.9203H137.006V12.7188H131.92V9.10474H147.076Z" fill="white"/>
<path d="M154.478 9.10474V23.9319H149.455V9.10474H154.478Z" fill="white"/>
<path d="M103.655 15.7771C104.405 15.7771 105.054 15.7771 105.702 15.7771C105.912 15.7951 106.109 15.8767 106.262 16.0087C106.707 16.391 107.127 16.7849 107.533 17.1671C107.94 17.5494 108.067 17.4799 108.385 17.1671C108.894 16.6922 109.479 16.2868 109.937 15.7771C110.201 15.4703 110.561 15.2439 110.97 15.1281C111.379 15.0122 111.817 15.0123 112.225 15.1284C112.201 16.6875 111.732 18.2141 110.864 19.5581C109.997 20.9022 108.76 22.0175 107.276 22.7945C105.792 23.5715 104.112 23.9836 102.4 23.99C100.689 23.9965 99.0048 23.5973 97.5138 22.8316C95.9762 22.0824 94.6909 20.9668 93.7951 19.604C92.8993 18.2411 92.4267 16.6822 92.4277 15.0937H93.8518L93.4195 15.6844H94.157C95.988 15.6844 97.8317 15.6844 99.6627 15.6844C100.07 15.6844 100.235 15.7771 100.349 16.1709C100.833 18.0591 101.367 19.9356 101.888 21.8122C102.066 22.4493 102.218 22.4956 102.74 22.0323C103.261 21.5689 103.884 20.9898 104.482 20.5032C104.623 20.4038 104.724 20.2649 104.77 20.108C104.816 19.951 104.804 19.7846 104.736 19.6345C104.355 18.3487 103.999 17.0513 103.617 15.696L103.655 15.7771Z" fill="white"/>
<path d="M94.1436 15.0471L99.3695 10.4715L102.205 7.99264C102.586 7.63354 102.879 7.65671 103.26 7.99264C104.812 9.38268 104.812 9.37111 104.367 11.294C104.1 12.4524 103.833 13.6107 103.553 14.7691C103.532 14.849 103.502 14.9266 103.464 15.0008H100.272C100.412 14.3868 100.539 13.8424 100.705 13.0663C100.018 13.6571 99.4331 14.2247 98.8228 14.6764C98.5807 14.8759 98.2713 14.9944 97.9454 15.0124C96.7375 15.0124 95.5295 15.0124 94.1309 15.0124L94.1436 15.0471Z" fill="white"/>
<path d="M105.752 15.0125C106.413 14.3523 107.125 13.6109 107.863 12.9043C107.947 12.8647 108.041 12.844 108.136 12.844C108.231 12.844 108.325 12.8647 108.409 12.9043C109.147 13.5646 109.859 14.2596 110.647 15.001L105.752 15.0125Z" fill="white"/>
<path d="M102.395 25.4843C100.132 25.4843 97.919 24.8728 96.0371 23.7273C94.1552 22.5817 92.6884 20.9535 91.8223 19.0485C90.9561 17.1435 90.7295 15.0473 91.1711 13.025C91.6126 11.0027 92.7025 9.14507 94.303 7.68706C95.9034 6.22905 97.9425 5.23614 100.162 4.83387C102.382 4.43161 104.683 4.63806 106.774 5.42713C108.865 6.2162 110.653 7.55244 111.91 9.26688C113.167 10.9813 113.839 12.997 113.839 15.0589C113.839 17.8239 112.633 20.4756 110.487 22.4307C108.341 24.3859 105.43 25.4843 102.395 25.4843ZM102.395 5.50235C100.32 5.50235 98.292 6.06281 96.5669 7.11289C94.8418 8.16298 93.4973 9.65551 92.7033 11.4017C91.9093 13.148 91.7016 15.0695 92.1064 16.9233C92.5111 18.7771 93.5102 20.4799 94.9773 21.8164C96.4444 23.1529 98.3135 24.0631 100.348 24.4318C102.383 24.8006 104.492 24.6113 106.409 23.888C108.326 23.1647 109.964 21.9398 111.117 20.3682C112.27 18.7967 112.885 16.949 112.885 15.0589C112.882 12.5253 111.775 10.0963 109.809 8.30478C107.842 6.51324 105.176 5.50542 102.395 5.50235Z" fill="white"/>
</svg>
