<svg width="50" height="50" viewBox="0 0 50 50" fill="none" xmlns="http://www.w3.org/2000/svg">
<g clip-path="url(#clip0_8_21)">
<path d="M25 -0.0869598C11.1446 -0.0869598 -0.086956 11.1446 -0.086956 25C-0.086956 38.8554 11.1446 50.087 25 50.087C38.8554 50.087 50.087 38.8554 50.087 25C50.087 11.1446 38.8554 -0.0869598 25 -0.0869598ZM38.4826 34.5201C37.412 35.1897 33.0614 35.3891 32.0082 34.6239C31.4304 34.2043 30.9022 33.6793 30.4005 33.1793C30.0495 32.8299 29.6511 32.6603 29.3495 32.281C29.1033 31.9706 28.9342 31.6043 28.675 31.2978C28.2375 30.7837 27.5641 30.3462 27.0315 30.9745C26.2293 31.9196 27.1576 33.7755 26.088 34.4815C25.7293 34.7185 25.3674 34.787 24.919 34.7533L23.9261 34.7984C23.3429 34.8098 22.419 34.8152 21.7554 34.6956C21.0152 34.562 20.4038 34.1576 19.7342 33.8609C18.4636 33.2973 17.2533 32.5293 16.3321 31.4658C13.825 28.569 10.4576 24.5853 9.14946 20.9435C8.88043 20.1951 8.16957 18.713 8.84348 18.0712C9.75978 17.4054 14.2571 17.2179 14.9587 18.2473C15.2435 18.6658 15.4234 19.2777 15.625 19.7522C15.8761 20.3435 16.012 20.9005 16.4043 21.4239C16.7516 21.888 17.0076 22.3549 17.2761 22.8636C17.5777 23.4348 17.8625 23.9826 18.2293 24.5081C18.4783 24.8658 19.1364 25.5772 19.5522 25.6299C20.5674 25.7598 20.5043 23.2929 20.4288 22.6908C20.3565 22.1103 20.338 21.4946 20.3571 20.906C20.3734 20.4038 20.4185 19.6962 20.1212 19.2864C19.6364 18.6179 18.5565 19.1179 18.4723 18.2196C18.6505 17.9647 18.613 17.7386 19.8038 17.3462C20.7418 17.038 21.3478 17.0478 21.9663 17.0973C23.2272 17.1984 24.5641 16.8571 25.7815 17.2658C26.9446 17.6576 26.7647 19.3103 26.7255 20.3005C26.6728 21.6522 26.7293 22.9717 26.7255 24.344C26.7239 24.9685 26.6989 25.5766 27.4609 25.5255C28.175 25.4783 28.2478 24.8772 28.5886 24.3815C29.0625 23.6902 29.4978 22.9891 29.9804 22.3005C30.631 21.3696 30.8277 20.3234 31.4402 19.3696C31.6592 19.0288 31.8478 18.3027 32.1853 18.0331C32.4408 17.8283 32.9261 17.9353 33.2353 17.9353H33.9706C34.5331 17.9353 35.1071 17.931 35.6853 17.9511C36.5179 17.9799 37.4505 17.7886 38.2761 17.9054C41.8386 18.4081 33.7984 26.0239 34.2168 27.3837C34.506 28.3228 36.3402 29.3723 37.0022 30.1413C37.881 31.1658 40.5864 33.2022 38.4826 34.5201Z" fill="#F1F1F1"/>
</g>
<defs>
<clipPath id="clip0_8_21">
<rect width="50" height="50" fill="white"/>
</clipPath>
</defs>
</svg>
