<svg width="50" height="50" viewBox="0 0 50 50" fill="none" xmlns="http://www.w3.org/2000/svg">
<path d="M25 0C11.1929 0 0 11.1929 0 25C0 38.8071 11.1929 50 25 50C38.8071 50 50 38.8071 50 25C50 11.1929 38.8071 0 25 0ZM12.5 12.5H37.5C37.9461 12.5 38.3791 12.5958 38.7766 12.7765L25 28.8491L11.2234 12.7764C11.6209 12.5959 12.0538 12.5 12.5 12.5ZM9.375 34.375V15.625C9.375 15.5596 9.37773 15.4945 9.38184 15.4297L18.5451 26.1202L9.48271 35.1826C9.41221 34.9221 9.375 34.6511 9.375 34.375ZM37.5 37.5H12.5C12.2239 37.5 11.953 37.4628 11.6924 37.3922L20.5849 28.4995L25 33.651L29.4153 28.4999L38.3076 37.3925C38.0469 37.4628 37.776 37.5 37.5 37.5ZM40.625 34.375C40.625 34.6511 40.5878 34.9219 40.5172 35.1826L31.4546 26.1202L40.6182 15.4297C40.6224 15.4945 40.625 15.5596 40.625 15.625V34.375Z" fill="#F1F1F1"/>
</svg>
